<?xml version="1.0" encoding="UTF-8"?>
<!DOCTYPE svg PUBLIC "-//W3C//DTD SVG 1.1//EN" "http://www.w3.org/Graphics/SVG/1.1/DTD/svg11.dtd">
<!-- Creator: CorelDRAW -->
<svg xmlns="http://www.w3.org/2000/svg" xml:space="preserve" width="600px" height="600px" style="shape-rendering:geometricPrecision; text-rendering:geometricPrecision; image-rendering:optimizeQuality; fill-rule:evenodd; clip-rule:evenodd"
viewBox="0 0 600 600"
 xmlns:xlink="http://www.w3.org/1999/xlink">
 <defs>
  <style type="text/css">
   <![CDATA[
    .fil0 {fill:#1F1A17}
    .fil4 {fill:#242424}
    .fil37 {fill:#252525}
    .fil5 {fill:#292929}
    .fil9 {fill:#3A5166}
    .fil30 {fill:#3E566A}
    .fil14 {fill:#3E5A71}
    .fil2 {fill:#456681}
    .fil22 {fill:#496A86}
    .fil24 {fill:#4C7394}
    .fil10 {fill:#5688B2}
    .fil21 {fill:#585858}
    .fil16 {fill:#5A8EB9}
    .fil29 {fill:#5C90BB}
    .fil17 {fill:#5D91BE}
    .fil3 {fill:#5F93C0}
    .fil18 {fill:#616161}
    .fil13 {fill:#6598C3}
    .fil1 {fill:#767676}
    .fil36 {fill:#797979}
    .fil26 {fill:#7F7F7F}
    .fil31 {fill:#888888}
    .fil12 {fill:#8B8B8B}
    .fil15 {fill:#929292}
    .fil34 {fill:#969696}
    .fil19 {fill:#9A9A9A}
    .fil7 {fill:#9D9D9D}
    .fil23 {fill:#A3A3A3}
    .fil35 {fill:#A6A6A6}
    .fil28 {fill:#B5B5B5}
    .fil11 {fill:#C1C1C1}
    .fil6 {fill:#C3C3C3}
    .fil20 {fill:#C6D0D7}
    .fil27 {fill:#C7C7C7}
    .fil32 {fill:#CAD4DD}
    .fil8 {fill:#D0D8E0}
    .fil33 {fill:#D2DEE9}
    .fil25 {fill:#D4E0EB}
   ]]>
  </style>
 </defs>
 <g id="Livello_x0020_1">
  <metadata id="CorelCorpID_0Corel-Layer"/>
  <g id="_79729968">
   <path id="_286027312" class="fil0" d="M243.083 340.8l-42.1932 -0.552c0.7464,0.2808 1.4844,0.6312 2.2104,1.0608 5.952,3.5148 7.3572,9.7092 9.3624,15.7224 2.2932,6.8796 3.3204,13.8516 5.238,20.784 1.4568,5.2668 4.4616,10.9992 7.038,15.8148 3.0336,5.6688 6.3312,11.2416 9.2004,16.9896 1.3128,2.6304 2.8116,5.25 4.206,7.8444 1.5768,2.9328 4.2564,7.524 5.1144,10.656 1.0896,3.978 1.3896,9.5424 1.7004,13.698 0.2856,3.8124 0.498,7.6248 0.7596,11.4372 1.0776,15.6468 3.1368,31.2204 4.4376,46.8516l0.2784 3.3468 -1.8684 2.79c-3.5136,5.2476 -14.2608,7.9704 -20.1348,9.654 -4.9356,1.416 -9.948,2.7324 -14.9472,3.912l-5.0508 1.1928c-3.6108,1.662 -7.7832,2.574 -11.0808,3.2076l-2.8332 0.5436 -122.915 -51.1008 -30.0192 -150.659c-3.3924,-12.3204 -5.8692,-25.02 -7.314,-37.8804l-13.7088 -122.068 -0.0684 -3.7128 65.25 -74.43 11.3352 0c1.1484,0 2.1828,0.1248 3.1332,0.3648 3.1476,-1.128 6.69,-1.0236 10.2396,-1.0068 4.2372,0.0204 8.4324,-0.6288 12.6624,-0.6288l2.9172 0 82.0044 63.7992c3.1344,2.3772 7.0536,4.4904 9.192,7.836 2.3676,3.7032 2.4744,8.8812 3.1344,13.1724l5.4384 -0.6036c0.3852,-1.494 1.2564,-3.1524 2.556,-4.5792 4.908,-5.3892 15.4728,-7.62 26.2632,-8.1252 10.458,-0.4908 21.1284,0.6132 27.066,3.6276 3.432,1.7424 5.6928,4.8504 6.6024,9.1908 0.7092,0.0912 1.4244,0.1104 2.1228,0.1308 5.9052,0.174 10.7592,1.7928 15.3696,5.3112l30.3564 0.0624c-0.0048,-0.0324 -0.0096,-0.0648 -0.0144,-0.0972l-51.9876 -25.0836 -2.346 -52.9236 0 -7.8324c0,-1.4244 0.0888,-2.0124 0.5352,-3.3828 2.8188,-8.67 13.2768,-9.0564 20.778,-9.1404 3.024,-0.0336 6.9456,0.2688 9.8652,-0.0144 7.656,-1.1844 17.2308,2.8512 24.7764,4.3392 14.1984,2.7972 28.17,6.9324 42.2064,10.4412 27.8616,6.966 55.6332,14.2872 83.4756,21.3336 13.8936,3.516 27.8412,6.8136 41.7456,10.29 10.9644,2.7408 14.3244,1.7052 22.722,10.95 4.3968,4.842 8.6568,10.2672 12.5316,15.54 7.218,9.828 15.6168,18.8436 23.1804,28.4244 7.872,9.9744 16.9656,19.1256 24.0564,29.6988l2.0676 3.0816 -21.8268 147.414c-3.4764,5.1924 -7.5696,9.6768 -11.8176,14.2428 -3.0276,3.2556 -6.138,6.462 -9.1128,9.7632 -6.5328,7.2468 -12.816,14.8236 -19.7676,21.6744 -6.7428,6.6432 -12.6312,14.1888 -19.1784,21.0468 -3.3516,3.5112 -6.18,7.4688 -9.6228,10.9452 -2.0352,2.0544 -3.9444,4.4088 -6.324,6.0612 -2.1168,1.4688 -4.5324,2.3448 -7.0056,3.03l-34.0032 9.36 -88.998 -87.8712c-39.7728,28.9884 -97.2684,22.5456 -118.991,-24.9456z"/>
   <path id="_284302272" class="fil1" d="M97.7148 312.037l3.1752 18.4152 27.6552 -4.5012 -3.5256 -19.6284c-0.8856,2.4456 -23.0064,5.3568 -27.3048,5.7144z"/>
   <path id="_284303224" class="fil1" d="M126.29 307.592l4.4448 24.7656c2.772,-0.6468 11.0712,-0.7152 12.0648,-3.1752l-3.81 -23.4948 -12.6996 1.9044z"/>
   <path id="_284300144" class="fil2" d="M264.72 188.848l-0.762 5.7048 1.1292 -1.9884 -0.3672 11.5236 8.2548 1.2696 5.9868 -0.0108 0.3636 12.7116c4.8816,7.2912 14.4216,4.404 19.05,7.62l0.6348 0 6.984 -1.9056c0.9276,-0.8052 11.052,-3.81 12.7008,-3.81l19.6848 0c6.0408,0 9.612,3.81 18.5448,3.6036l-19.1796 -12.4932 -7.62 -3.81 0 10.7952 -1.2708 0 0 -15.24c-3.3888,2.2692 -14.148,5.0796 -19.6848,5.0796l-4.4448 0c-7.1568,0 -23.4168,-0.666 -24.7644,-5.7144l-0.7308 -1.2384c2.3568,-3.408 13.3032,-6.3816 18.51,-6.3816l3.81 0 -0.6348 -9.5256c-3.7248,2.4948 -10.8732,4.4616 -17.1288,4.4604 -2.9736,0 -8.3652,0.6444 -9.8988,0.3912 -2.442,-0.4044 -6.9084,-1.0416 -9.1668,-1.0416z"/>
   <path id="_284302496" class="fil2" d="M217.729 247.267l1.3392 13.116 20.886 -3.5904 5.7156 -1.9056 4.3872 -2.0556c0.9708,0.7632 3.3732,2.6916 4.5024,2.6916l1.2696 0c1.0032,0 1.968,-0.402 1.9056,-1.2708l-0.7716 -12.69 -1.134 -0.6444c-1.1292,2.7996 -5.8188,1.4364 -9.2952,2.1336 -2.928,0.588 -6.0624,1.4712 -9.1164,1.6788 -6.4728,0.438 -14.4516,2.4204 -19.6884,2.5368z"/>
   <path id="_284300872" class="fil3" d="M279.96 202.183c1.3476,5.0484 17.6076,5.7144 24.7644,5.7144l4.4448 0c5.5368,0 16.296,-2.8104 19.6848,-5.0796l-0.0024 -3.264 0.6384 0.0888c0.4344,0.774 0.6348,0.6792 0.6348,1.9044l0.03 4.7028 52.0392 -5.9724c-2.3856,-2.0736 -12.1296,-7.1124 -15.6696,-8.4588 -3.5328,-1.344 -17.2008,-4.6104 -18.6204,-5.5116l-10.1592 -1.2696 -29.8404 -0.7896 -5.7192 0.1548 0 2.5404c0,1.776 7.77,6.624 9.2868,7.2228 3.8928,1.5336 9.9324,0.3252 12.9372,2.9364l-13.3056 -1.5048 -10.824 0.2352c-8.2764,0 -16.8576,1.368 -20.3196,6.3504z"/>
   <path id="_285682160" class="fil3" d="M264.72 188.848c2.2584,0 6.7248,0.6372 9.1668,1.0416 1.5336,0.2532 6.9252,-0.3912 9.8988,-0.3912 6.2556,0.0012 13.404,-1.9656 17.1288,-4.4604l0 -1.9044c-4.3284,-2.8992 -13.1208,-3.81 -20.3196,-3.81 -7.0836,0 -23.9808,0.2832 -24.1296,6.984l8.2548 2.5404z"/>
   <path id="_285681680" class="fil3" d="M235.51 170.432l0 0.6348c6.5784,1.7568 9.4044,3.81 19.05,3.81 7.0764,0 20.0664,-0.9072 22.86,-5.0796 -2.3136,-3.4536 -9.618,-3.81 -15.24,-3.81l-3.81 0c-4.2768,0 -8.4096,0.3048 -12.3336,1.0008 -6.024,1.0692 -6.8628,2.466 -10.5264,3.444z"/>
   <path id="_79695584" class="fil4" d="M153.595 402.842l2.5392 21.5904 -0.0192 7.5336 -11.7204 2.7276 -2.8644 -10.2612 1.2696 0 0 -1.2684 -24.78 5.7156 -3.7956 -20.958 -3.81 -20.3196 -4.4172 -25.8936 24.0864 -4.5816 3.8268 11.4252 -2.5152 -13.7964 11.4048 -1.4436c0.4164,5.0088 4.47,17.8128 5.9712,23.874 1.8732,7.566 4.1496,17.5512 4.824,25.656zm-14.6052 -97.1544l3.81 23.4948 1.2696 20.3196c0.1464,2.9808 -9.3696,3.81 -13.0104,3.9072l-2.724 -10.0344 1.7412 -1.626 -26.6628 4.5816 -2.5236 -15.8784 -3.1752 -18.4152 -5.7336 -29.34 27.3372 -3.6828 3.162 11.4336 -1.9056 -12.0636 12.4968 -1.9992 5.9184 29.3028zm127.634 49.53c-0.0708,-0.2676 -7.4904,-8.712 -8.892,-10.794 -1.1496,-1.71 -6.5292,-11.0052 -6.9828,-12.7008 -3.1884,-3.6696 -8.3256,-31.35 -4.4448,-37.4652l0 -6.3504 -1.9056 13.3356c0,7.9536 -0.7116,7.5096 0.6876,14.5524 0.978,4.9248 2.0016,9.2088 3.1224,14.022l-6.984 0c-9.276,0 -20.5392,0.7848 -28.71,-0.5004 -3.4596,-0.5436 -10.6164,-0.1344 -14.4708,-0.1344 -4.8504,0 -12.3564,1.5864 -12.6996,-2.5404 8.5284,0 15.8748,-0.2436 15.8748,-8.8896l0.144 -5.7336 -0.7788 -6.966c0,-7.4232 -4.4952,-27.0456 -6.9216,-31.5732l11.5356 -4.1532 -0.318 -0.906 -11.298 4.2552 -1.9128 -4.6368 20.4528 -2.1804 -1.4868 0.918 0.252 0.594 29.0664 -10.578 -20.886 3.5904 -1.3392 -13.116 -0.7824 -9.5112 7.7496 -0.8268 0.018 -0.456c-3.1896,0 -8.2548,1.0428 -8.2548,-1.9056l0 -5.7144 1.9056 0 22.86 -2.5404 -1.9056 -1.9056c-0.858,2.1264 -8.862,2.286 -11.4492,2.5212 -4.0716,0.3708 -7.9944,1.2888 -12.0456,1.2888l-1.6728 -22.2444 4.2132 0.0204c2.4456,0 3.0696,3.5688 6.3492,4.4448l-5.4504 -6.0024 -0.36 0.8904 -4.9848 0.0312 0 -3.81c0,-1.4628 0.4428,-1.9044 1.9056,-1.9044l2.5404 0 0 3.81 0.6348 0 -0.7596 -14.5968 -0.5112 -0.0084 0 3.81 -1.9044 0 -3.1752 0c0,-6.8124 -0.858,-15.8184 -1.77,-21.7248 -1.8552,-12.0216 0.2448,-8.1108 -8.6436,-14.8512 -9.12,-6.9168 -17.4372,-13.6428 -26.3016,-20.688 -8.8548,-7.0368 -17.6316,-13.4064 -26.3232,-20.6664 -7.476,-6.2448 -18.696,-15.2712 -26.496,-20.4948 -3.7176,0 -7.854,0.6516 -12.7068,0.6288 -5.2764,-0.0252 -9.2388,-0.4344 -8.2488,3.8172 -3.1692,-0.8472 -2.6964,-3.1752 -5.0796,-3.1752l-6.9852 0 -59.934 68.3652 9.0828 80.2764c3.0156,27.1464 5.0664,53.5764 11.598,77.3016 3.0948,11.2452 5.1528,24.6372 7.6464,36.8028 2.4288,11.8464 5.2368,24.288 7.7388,36.7116 2.532,12.5676 5.0016,24.2844 7.74,36.7104l7.2384 36.576 114.337 47.5344c2.0064,-0.3852 11.3928,-2.5308 11.3928,-4.3536 0,-4.164 -2.5848,-6.612 1.9044,-6.9852l2.4396 7.0248c5.1048,-1.206 27.4512,-6.7884 29.31,-9.5652 -1.2732,-15.3036 -3.3972,-31.7436 -4.4472,-46.9872 -0.3264,-4.7508 -1.0944,-19.4364 -2.1408,-23.2584 -0.5628,-2.0532 -7.1688,-13.7796 -8.652,-16.7496 -4.8696,-9.7548 -13.956,-23.8812 -16.902,-34.5324 -2.022,-7.3152 -2.7468,-13.272 -5.0928,-20.3076 -2.3556,-7.068 -3.4188,-13.884 -11.6592,-9.93 -3.1476,-5.9472 -5.7156,-10.5492 -5.7156,-19.6848l62.862 0.8232c4.7988,8.8764 9.5088,18.402 17.7828,23.9424z"/>
   <path id="_285135664" class="fil5" d="M519.454 288.553c7.5048,2.0196 13.236,19.4988 13.236,31.104 0,8.9352 -4.7448,17.3448 -12.0648,19.05 0.522,-6.276 3.324,-11.9052 2.0556,-19.8348 -0.8088,-5.0472 -3.9612,-16.56 -3.9612,-18.9l-0.1464 -3.1908 0.8808 -8.2284zm-97.8888 -65.4156c0,-1.7148 0.3024,-1.7508 0.6348,-3.1752l2.5404 0c1.6764,7.2 9.5244,8.1168 9.5244,10.1604l0 1.2696 -0.7476 10.7856c-4.65,-2.2752 -6.6648,-0.4308 -11.952,0.0096l0 -19.05zm109.854 31.7496l0 -8.2548c0,-4.8276 -0.9252,-12.0168 -3.174,-14.6052 0,4.6416 1.9044,6.7896 1.9044,11.43l0 9.5256c0,8.982 -3.8988,21.4224 -8.8896,24.7644l5.1696 -48.8844 1.0044 1.368 -0.6 -5.802 0.1404 -2.5608c0,-2.0436 2.5008,-2.5404 4.4448,-2.5404 3.6804,0 11.9364,20.1264 10.5492,27.6804 -2.1036,11.4468 -3.5088,21.2268 -14.3592,23.7552 1.2108,-5.1936 3.81,-8.4048 3.81,-15.876zm-111.125 -35.5596l1.2372 0.6888c-1.6536,3.462 1.026,22.806 -3.1416,22.806l-3.1752 0 -5.7036 -0.7104 -0.0108 -3.0996 0.7104 -5.7036 -34.3272 4.7112c-0.5988,-0.198 -13.464,-9.4128 -14.6436,-10.4376l-3.0984 -1.4388 -0.0768 -1.7364c0,-2.6724 -2.8188,-2.2248 -4.4448,-4.4448l14.0388 -1.308c-4.8048,-0.5964 -12.1428,0.8976 -14.6316,0.6792 -1.9476,-0.1704 -8.6556,-4.476 -9.5676,-5.7204l35.634 -4.4868 -0.1008 -0.8352 -38.0556 4.2096c-0.168,-0.1416 -2.3088,-1.2228 -3.192,-1.428l-4.6104 -3.5736 51.5796 -6.756 9.7452 5.5128 -10.3476 1.1376 -0.012 0.504c3.0684,0 10.9584,-0.8376 12.4656,-0.4056 2.9676,0.8532 5.7168,3.4224 9.1248,4.2156l0.114 0.6432 -8.4408 1.4952c5.958,0.402 9.8724,-1.0968 12.7632,0.3792 3.0024,1.5324 6.8568,4.3308 10.1676,5.1024zm-72.39 -33.0204c1.4196,0.9012 15.0876,4.1676 18.6204,5.5116 3.54,1.3464 13.284,6.3852 15.6696,8.4588l-52.0392 5.9724 -0.03 -4.7028c0,-1.2252 -0.2004,-1.1304 -0.6348,-1.9044l-0.6384 -0.0888 0.0024 3.264 0 15.24 1.2708 0 0 -10.7952 7.62 3.81 19.1796 12.4932c-8.9328,0.2064 -12.504,-3.6036 -18.5448,-3.6036l-19.6848 0c-1.6488,0 -11.7732,3.0048 -12.7008,3.81 4.6692,0 11.1456,-3.1752 13.9704,-3.1752l1.9056 0c3.5196,0 17.0028,0.2016 19.4388,0.882 5.058,1.41 10.5588,3.6852 15.486,4.8336l22.86 16.5096c1.1388,-2.8224 15.654,-0.0024 19.6992,-0.0144 6.564,-0.0192 13.6152,1.7316 19.812,0.792 8.1912,-1.2432 12.9624,-3.1416 17.0088,2.3928 2.2704,3.1044 6.2316,10.1904 6.3444,15.2448l0.6348 10.1604c-1.434,17.2332 -10.5432,11.5764 -21.414,16.05 -6.7788,2.79 -19.854,9.1392 -26.2104,10.62l0.6348 -13.3356 -2.5404 -17.7792 -6.984 -15.24c1.6356,7.0248 6.2196,13.1196 7.4916,21.7176 1.41,9.54 1.4436,17.532 -0.5076,25.9068 -0.3996,17.964 -20.5104,45.8136 -31.7496,53.34 -1.3368,1.9968 -16.7304,11.4024 -19.9092,12.4752 -4.2588,1.4364 -8.0556,2.6532 -11.9208,3.954 -5.7444,1.9332 -8.052,1.1172 -14.2716,2.2392 -6.9588,1.2552 -21.708,-0.318 -27.3636,-2.988 -3.6624,-1.7268 -6.8436,-3.7596 -10.608,-5.2668 -5.5512,-2.2236 -7.2396,-5.892 -9.906,-6.6036 6.9828,10.428 31.7736,18.576 48.3948,16.0104 6.6492,-1.0272 8.1384,-0.2448 14.2308,-2.2788 4.5888,-1.5324 7.368,-2.8992 12.0696,-4.44 6.7728,-2.22 15.0084,-8.7528 20.5536,-12.4668l90.7464 89.5956 21.6264 -5.856 0.0228 -3.7296 3.0636 2.658c9.0552,-2.202 7.4232,-1.9584 12.9792,-7.5696 3.2532,-3.2844 6.2988,-7.4652 9.5016,-10.8192 6.6252,-6.9408 12.6732,-14.6448 19.3824,-21.2568 6.3444,-6.2508 13.2552,-14.4744 19.3764,-21.264 4.6728,-5.184 15.6732,-16.332 18.882,-21.1236l20.9652 -141.602c-6.4188,-9.5724 -16.2396,-19.7484 -23.6196,-29.0988 -7.5588,-9.576 -16.3812,-19.158 -23.382,-28.6872 -3.18,-4.3284 -8.2164,-10.7124 -11.9004,-14.7696 -6.3696,-7.0128 -7.734,-5.5392 -17.9436,-8.0916 -13.86,-3.4644 -27.7272,-6.7416 -41.7732,-10.296 -27.2328,-6.8928 -56.1564,-14.5044 -83.448,-21.3264 -13.3896,-3.348 -28.5876,-7.7472 -41.7336,-10.3368 -4.6752,-0.9216 -16.866,-5.016 -21.5028,-4.2636 -3.8604,0.6276 -22.9968,-1.2324 -22.9968,3.0432l0 7.62 2.082 46.9812 51.7896 24.9876c0.1032,11.4876 4.7316,14.0808 5.1828,18.2004l-2.5404 0z"/>
   <path id="_86520800" class="fil6" d="M358.064 243.457l0 -3.81 17.1372 1.3824c5.0712,3.2784 14.4324,20.376 14.6124,28.4628l1.2708 13.9704c-2.4984,3.7308 -14.07,9.6924 -19.416,10.14l-0.2688 -2.52 0 -1.9056 -3.81 0c-0.228,0.9528 -0.1404,1.9056 -1.2708,1.9056 -6.8136,0 -8.8896,0.078 -8.8896,-6.9852l-0.1512 -26.0448 0.786 -14.5956zm-99.5376 19.0056l8.7324 -1.86c3.7968,5.6688 5.1336,5.7396 7.8636,13.7268 2.2236,6.504 2.616,11.214 4.2024,18.0228l-7.6416 0.1416 -5.682 -0.852 0.7248 -0.132 -8.1996 -29.0472zm8.0976 -12.6552l-10.1592 14.6052c3.5844,2.6268 9.5244,26.454 9.5244,34.29l-0.0372 2.706 -17.412 -4.0296 1.6824 -8.934 -2.0136 -2.442 0 -1.9056 -0.6348 0 -1.2696 3.81 0 6.3504 0 1.9044c0.876,1.3092 1.9044,1.6488 1.9044,3.1752l-0.0372 5.8596 18.2088 4.2324 1.5144 -3.7416 0.0192 13.446 9.3732 -1.2468 2.6724 -12.1992 10.7964 -0.222 10.158 0.222c0,-13.3668 17.2224,-29.8452 31.1148,-29.8452l3.81 0c5.9484,0 9.8424,4.1184 13.5972,5.3364l7.9932 10.5384 0 1.9056c0,1.842 7.62,6.9576 7.62,17.1444l28.5744 -11.43c1.9512,-8.3748 1.9176,-16.3668 0.5076,-25.9068 -1.272,-8.598 -5.856,-14.6928 -7.4916,-21.7176l-6.9852 -8.8908 -22.86 -16.5096 0 27.9396 -74.2992 10.7712 -15.8712 -15.216z"/>
   <path id="_284269040" class="fil7" d="M250.75 331.723c1.6752,-1.0632 5.514,-0.6336 8.2716,-0.6192 7.0608,0.0384 3.2376,-1.56 6.9684,-2.556 0.5496,2.0592 19.8612,26.0352 20.3196,26.0352 3.6228,0 26.8008,-5.7852 31.8936,-6.8424 11.0796,-2.298 21.6216,-4.0188 32.3964,-6.648l11.2752 11.5848c11.2392,-7.5264 31.35,-35.376 31.7496,-53.34l-28.5744 11.43c-1.1508,2.3976 -0.6396,6.7632 -2.742,11.2284 -1.368,2.9052 -3.5508,6.2052 -5.6664,8.304 -3.8004,3.7704 -11.1696,9.678 -18.2616,9.678l-3.1752 0c-6.354,0 -18.2856,-7.6704 -14.6052,-8.8908 8.8788,2.0688 20.6112,2.0736 25.4004,-5.0796 -4.5588,1.2168 -5.4324,4.1928 -13.314,5.1024 -6.5064,0.75 -9.582,-0.1416 -14.6256,-2.562 -0.7788,2.3472 -5.6856,-3.6144 -5.0808,-5.0808l-5.5044 -2.9112 0.5436 -1.488 -3.2616 -0.81 -2.1552 -4.5732 -0.8376 0.4404 4.3176 9.9396c-4.5732,-3.2496 -5.1672,-10.446 -5.1672,-18.3768l-10.158 -0.222 -10.7964 0.222 -2.6724 12.1992 -9.3732 1.2468 -0.0192 -13.446 -1.5144 3.7416 -18.2088 -4.2324 0.0372 -5.8596c0,-1.5264 -1.0284,-1.866 -1.9044,-3.1752l0 -1.9044c-3.8808,6.1152 1.2564,33.7956 4.4448,37.4652z"/>
   <path id="_284269520" class="fil8" d="M305.994 223.772l-6.984 1.9056c-1.9896,2.7144 -14.136,7.9656 -17.9004,10.674 -2.1132,1.5204 -13.2828,11.8152 -14.4852,13.4556l15.8712 15.216 74.2992 -10.7712 0 -27.9396c-4.9272,-1.1484 -10.428,-3.4236 -15.486,-4.8336 -2.436,-0.6804 -15.9192,-0.882 -19.4388,-0.882l-1.9056 0c-2.8248,0 -9.3012,3.1752 -13.9704,3.1752z"/>
   <path id="_86520688" class="fil9" d="M235.51 170.432c3.6636,-0.978 4.5024,-2.3748 10.5264,-3.444 3.924,-0.696 8.0568,-1.0008 12.3336,-1.0008l3.81 0c5.622,0 12.9264,0.3564 15.24,3.81 -2.7936,4.1724 -15.7836,5.0796 -22.86,5.0796 -9.6456,0 -12.4716,-2.0532 -19.05,-3.81l0 1.2708 0 5.0796 -18.4008 2.0436 -0.1728 3.036 0.1584 9.5256 -1.2696 0.6348 1.9044 0 0 -3.81 0.5112 0.0084 0.7596 14.5968 -0.6348 0 0 -3.81 -2.5404 0c-1.4628,0 -1.9056,0.4416 -1.9056,1.9044l0 3.81 4.9848 -0.0312 0.36 -0.8904 5.4504 6.0024 14.6052 13.9692 1.9056 1.9056 6.3084 6.6588 -17.82 2.2128 0.1176 0.9876 18.4464 -2.3124 7.5516 7.0584 1.134 0.6444 0.7716 12.69c0.0624,0.8688 -0.9024,1.2708 -1.9056,1.2708l-1.2696 0c-1.1292,0 -3.5316,-1.9284 -4.5024,-2.6916l-4.3872 2.0556c2.6088,-0.2172 1.4184,-0.6348 3.81,-0.6348 3.2748,0 5.802,5.79 6.9852,8.2548 -3.3384,6.3096 -8.1516,12.714 -8.8908,21.5904l0.6348 0c3.6408,-7.5864 3.162,-12.078 8.256,-19.6848l10.1592 -14.6052c1.2024,-1.6404 12.372,-11.9352 14.4852,-13.4556 3.7644,-2.7084 15.9108,-7.9596 17.9004,-10.674l-0.6348 0c-4.776,2.5272 -11.4504,7.4784 -17.9616,7.8336l-62.6796 -52.8792 18.4104 -1.9452 0 6.3504c2.9436,0.786 2.8524,2.8392 8.2548,3.1764 4.026,0.2508 6.5028,0.6336 10.6956,0.6444l0.7344 8.244 0 3.1752c2.868,1.038 3.0648,2.4528 8.8908,3.81l0.3672 -11.5236 -1.1292 1.9884 0.762 -5.7048 -8.2548 -2.5404c0.1488,-6.7008 17.046,-6.984 24.1296,-6.984 7.1988,0 15.9912,0.9108 20.3196,3.81l0 1.9044 0.6348 9.5256 -3.81 0c-5.2068,0 -16.1532,2.9736 -18.51,6.3816l0.7308 1.2384c3.462,-4.9824 12.0432,-6.3504 20.3196,-6.3504l10.824 -0.2352 13.3056 1.5048c-3.0048,-2.6112 -9.0444,-1.4028 -12.9372,-2.9364 -1.5168,-0.5988 -9.2868,-5.4468 -9.2868,-7.2228l0 -2.5404 5.7192 -0.1548 29.8404 0.7896c-1.4904,-0.9456 -3.216,-1.2696 -5.7156,-1.2696l-30.48 0c-0.8784,-3.2904 -7.5528,-4.9776 -11.4192,-5.0904 -5.292,-0.1548 -8.04,-2.7924 -11.4408,-5.07l0 -3.81c-0.9204,-3.126 -11.4324,-5.0808 -22.2456,-4.7676 -9.6852,0.282 -19.764,2.5008 -20.934,5.4024z"/>
   <path id="_284268176" class="fil10" d="M245.67 254.887l-5.7156 1.9056 -29.0664 10.578 -0.252 -0.594 1.4868 -0.918 -20.4528 2.1804 1.9128 4.6368 11.298 -4.2552 0.318 0.906 -11.5356 4.1532c2.4264,4.5276 6.9216,24.15 6.9216,31.5732l0.63 1.8732 43.1844 -5.6832 1.9056 -13.3356 1.2696 -3.81c0.7392,-8.8764 5.5524,-15.2808 8.8908,-21.5904 -1.1832,-2.4648 -3.7104,-8.2548 -6.9852,-8.2548 -2.3916,0 -1.2012,0.4176 -3.81,0.6348z"/>
   <path id="_284268368" class="fil11" d="M250.75 331.723c0.4536,1.6956 5.8332,10.9908 6.9828,12.7008 1.4016,2.082 8.8212,10.5264 8.892,10.794l1.2708 1.2696c2.6664,0.7116 4.3548,4.38 9.906,6.6036 3.7644,1.5072 6.9456,3.54 10.608,5.2668 5.6556,2.67 20.4048,4.2432 27.3636,2.988 6.2196,-1.122 8.5272,-0.306 14.2716,-2.2392 3.8652,-1.3008 7.662,-2.5176 11.9208,-3.954 3.1788,-1.0728 18.5724,-10.4784 19.9092,-12.4752l-11.2752 -11.5848c-10.7748,2.6292 -21.3168,4.35 -32.3964,6.648 -5.0928,1.0572 -28.2708,6.8424 -31.8936,6.8424 -0.4584,0 -19.77,-23.976 -20.3196,-26.0352 -3.7308,0.996 0.0924,2.5944 -6.9684,2.556 -2.7576,-0.0144 -6.5964,-0.444 -8.2716,0.6192z"/>
   <path id="_284268080" class="fil12" d="M300.914 305.688c0,7.9308 0.594,15.1272 5.1672,18.3768l-4.3176 -9.9396 0.8376 -0.4404 2.1552 4.5732 3.2616 0.81 -0.5436 1.488 5.5044 2.9112c-0.6048,1.4664 4.302,7.428 5.0808,5.0808l-0.636 -2.5404c0.87,0.4176 4.2888,1.4844 5.7372,1.4112l5.6928 -0.7764 -3.174 -5.0796 -6.9852 -5.7156 0 1.2708 -2.1252 -0.138 1.4904 -2.4024c-1.4916,-1.092 -3.81,-5.112 -3.81,-7.62l0 -5.0796c0,-2.4864 0.9588,-0.0708 1.2444,-3.732l-2.5152 -0.7128 0.0456 -3.0576 2.3868 -0.9636 0.7428 3.3852c2.28,-1.6692 3.1152,-3.5196 6.834,-5.8656 2.076,-1.3104 6.684,-2.5272 9.0408,-3.6588 0.2484,2.9844 2.1744,2.4984 5.0808,4.4448 0.8736,-0.6408 2.5392,-2.4336 2.5392,-3.81l0.0552 -1.7736 3.9672 -1.4016 -0.2124 1.9056 2.6484 0.1752 -1.3776 1.0944 2.3112 0.0588 1.2516 5.2236 -5.5968 3.0972 3.9384 4.32 4.188 2.628 -0.378 0.5472c-11.4396,-6.0528 -6.9372,-1.062 -10.908,4.968 -2.9232,4.4388 -6.7368,7.6392 -12.5868,9.0024l-0.6564 0.2436 3.8316 8.0112c3.8424,-1.8432 6.8016,-2.1168 10.0176,-5.2224 0.9336,-0.9012 7.5552,-8.112 7.7616,-8.112 1.4076,0 4.446,3.2232 4.446,3.81 0,1.8492 -1.992,3.6624 -2.5404,5.7144 7.3512,-4.9224 6.9852,-13.9728 6.8556,-24.066l-1.776 -4.5084c4.5024,3.0144 8.8908,9.6072 8.8908,17.1444 0,13.2888 -12.9372,27.9396 -25.4004,27.9396l-3.1752 0c-6.5916,0 -11.9736,-3.6912 -14.6052,-7.62 -3.6804,1.2204 8.2512,8.8908 14.6052,8.8908l3.1752 0c7.092,0 14.4612,-5.9076 18.2616,-9.678 2.1156,-2.0988 4.2984,-5.3988 5.6664,-8.304 2.1024,-4.4652 1.5912,-8.8308 2.742,-11.2284 0,-10.1868 -7.62,-15.3024 -7.62,-17.1444l0 -1.9056 -7.9932 -10.5384c-3.7548,-1.218 -7.6488,-5.3364 -13.5972,-5.3364l-3.81 0c-13.8924,0 -31.1148,16.4784 -31.1148,29.8452z"/>
   <path id="_284300424" class="fil13" d="M337.745 211.073c0.8832,0.2052 3.024,1.2864 3.192,1.428l38.0556 -4.2096 0.1008 0.8352 -35.634 4.4868c0.912,1.2444 7.62,5.55 9.5676,5.7204 2.4888,0.2184 9.8268,-1.2756 14.6316,-0.6792l-14.0388 1.308c1.626,2.22 4.4448,1.7724 4.4448,4.4448l0.0768 1.7364 3.0984 1.4388 59.0544 -8.2548c-3.3108,-0.7716 -7.1652,-3.57 -10.1676,-5.1024 -2.8908,-1.476 -6.8052,0.0228 -12.7632,-0.3792l8.4408 -1.4952 -0.114 -0.6432c-3.408,-0.7932 -6.1572,-3.3624 -9.1248,-4.2156 -1.5072,-0.432 -9.3972,0.4056 -12.4656,0.4056l0.012 -0.504 10.3476 -1.1376 -9.7452 -5.5128 -51.5796 6.756 4.6104 3.5736z"/>
   <path id="_284300032" class="fil14" d="M200.585 305.053l0.7788 6.966 -0.144 5.7336c0,8.646 -7.3464,8.8896 -15.8748,8.8896 0.3432,4.1268 7.8492,2.5404 12.6996,2.5404 3.8544,0 11.0112,-0.4092 14.4708,0.1344 8.1708,1.2852 19.434,0.5004 28.71,0.5004l6.984 0c-1.1208,-4.8132 -2.1444,-9.0972 -3.1224,-14.022 -1.3992,-7.0428 -0.6876,-6.5988 -0.6876,-14.5524l-43.1844 5.6832 -0.63 -1.8732z"/>
   <path id="_284270384" class="fil15" d="M133.91 368.552c0,3.3648 1.1544,7.4364 1.7484,10.3176 1.2648,6.1248 1.3416,5.0424 -4.3368,6.1452 -5.184,1.0056 -15.4932,3.7512 -20.2716,3.858l-0.636 -1.2708 3.81 20.3196 26.0532 -5.6328 -2.2668 -13.362 0.8244 -0.1476 3.3216 17.2392c3.27,-0.0012 10.4808,-0.8052 11.4384,-3.1764 -0.6744,-8.1048 -2.9508,-18.09 -4.824,-25.656 -1.5012,-6.0612 -5.5548,-18.8652 -5.9712,-23.874l-11.4048 1.4436 2.5152 13.7964z"/>
   <path id="_284300648" class="fil16" d="M379.655 242.822l6.9852 8.8908 6.984 15.24 48.8952 -5.7156c-0.1128,-5.0544 -4.074,-12.1404 -6.3444,-15.2448 -4.0464,-5.5344 -8.8176,-3.636 -17.0088,-2.3928 -6.1968,0.9396 -13.248,-0.8112 -19.812,-0.792 -4.0452,0.012 -18.5604,-2.808 -19.6992,0.0144z"/>
   <path id="_284269232" class="fil17" d="M298.375 225.678c-4.6284,-3.216 -14.1684,-0.3288 -19.05,-7.62l-0.3636 -12.7116 -5.9868 0.0108 -8.2548 -1.2696c-5.826,-1.3572 -6.0228,-2.772 -8.8908,-3.81l0 -3.1752 -0.7344 -8.244c-4.1928,-0.0108 -6.6696,-0.3936 -10.6956,-0.6444 -5.4024,-0.3372 -5.3112,-2.3904 -8.2548,-3.1764l0 -6.3504 -18.4104 1.9452 62.6796 52.8792c6.5112,-0.3552 13.1856,-5.3064 17.9616,-7.8336z"/>
   <path id="_86520968" class="fil18" d="M114.224 407.922l3.7956 20.958 24.78 -5.7156 0 1.2684 -1.2696 0 2.8644 10.2612 11.7204 -2.7276 0.0192 -7.5336 -2.5392 -21.5904c-0.9576,2.3712 -8.1684,3.1752 -11.4384,3.1764l-3.3216 -17.2392 -0.8244 0.1476 2.2668 13.362 -26.0532 5.6328z"/>
   <path id="_284299808" class="fil19" d="M97.7148 312.037c4.2984,-0.3576 26.4192,-3.2688 27.3048,-5.7144l-2.5392 -15.8748 -3.162 -11.4336 -27.3372 3.6828 5.7336 29.34z"/>
   <path id="_86521136" class="fil20" d="M389.814 269.492c-1.1448,4.2912 -12.516,8.4 -18.414,8.8908 -0.204,-9.1404 -7.6512,-31.9176 -13.3356,-34.926l-0.786 14.5956 0.1512 26.0448c0,7.0632 2.076,6.9852 8.8896,6.9852 1.1304,0 1.0428,-0.9528 1.2708,-1.9056l3.81 0 0 1.9056 0.2688 2.52c5.346,-0.4476 16.9176,-6.4092 19.416,-10.14l-1.2708 -13.9704z"/>
   <path id="_284301264" class="fil21" d="M125.02 306.323l3.5256 19.6284 -27.6552 4.5012 2.5236 15.8784 26.6628 -4.5816 -1.7412 1.626 2.724 10.0344c3.6408,-0.0972 13.1568,-0.9264 13.0104,-3.9072l-1.2696 -20.3196c-0.9936,2.46 -9.2928,2.5284 -12.0648,3.1752l-4.4448 -24.7656 -3.81 -17.1444 2.5392 15.8748z"/>
   <path id="_284301376" class="fil22" d="M361.24 227.582c1.1796,1.0248 14.0448,10.2396 14.6436,10.4376l34.3272 -4.7112 -0.7104 5.7036 0.0108 3.0996 5.7036 0.7104 3.1752 0c4.1676,0 1.488,-19.344 3.1416,-22.806l-1.2372 -0.6888 -59.0544 8.2548z"/>
   <path id="_284301488" class="fil23" d="M110.414 387.602l0.636 1.2708c4.7784,-0.1068 15.0876,-2.8524 20.2716,-3.858 5.6784,-1.1028 5.6016,-0.0204 4.3368,-6.1452 -0.594,-2.8812 -1.7484,-6.9528 -1.7484,-10.3176l-3.8268 -11.4252 -24.0864 4.5816 4.4172 25.8936z"/>
   <path id="_284301600" class="fil24" d="M393.624 266.953l2.5404 17.7792c10.404,-2.424 32.28,-10.7952 44.802,-11.0136l2.1876 -2.3208 -0.6348 -10.1604 -48.8952 5.7156z"/>
   <path id="_284301712" class="fil25" d="M358.064 243.457c5.6844,3.0084 13.1316,25.7856 13.3356,34.926 5.898,-0.4908 17.2692,-4.5996 18.414,-8.8908 -0.18,-8.0868 -9.5412,-25.1844 -14.6124,-28.4628l-17.1372 -1.3824 0 3.81z"/>
   <path id="_284301824" class="fil26" d="M526.974 221.868l-0.1404 2.5608 0.6 5.802 -1.0044 -1.368 -5.1696 48.8844c4.9908,-3.342 8.8896,-15.7824 8.8896,-24.7644l0 -9.5256c0,-4.6404 -1.9044,-6.7884 -1.9044,-11.43 2.2488,2.5884 3.174,9.7776 3.174,14.6052l0 8.2548c0,7.4712 -2.5992,10.6824 -3.81,15.876 10.8504,-2.5284 12.2556,-12.3084 14.3592,-23.7552 1.3872,-7.554 -6.8688,-27.6804 -10.5492,-27.6804 -1.944,0 -4.4448,0.4968 -4.4448,2.5404z"/>
   <path id="_284301936" class="fil27" d="M330.125 326.008l0.6888 1.236 -1.9596 -0.6012 -5.6928 0.7764c-1.4484,0.0732 -4.8672,-0.9936 -5.7372,-1.4112l0.636 2.5404c5.0436,2.4204 8.1192,3.312 14.6256,2.562 7.8816,-0.9096 8.7552,-3.8856 13.314,-5.1024 -4.7892,7.1532 -16.5216,7.1484 -25.4004,5.0796 2.6316,3.9288 8.0136,7.62 14.6052,7.62l3.1752 0c12.4632,0 25.4004,-14.6508 25.4004,-27.9396 0,-7.5372 -4.3884,-14.13 -8.8908,-17.1444l1.776 4.5084c0.1296,10.0932 0.4956,19.1436 -6.8556,24.066 0.5484,-2.052 2.5404,-3.8652 2.5404,-5.7144 0,-0.5868 -3.0384,-3.81 -4.446,-3.81 -0.2064,0 -6.828,7.2108 -7.7616,8.112 -3.216,3.1056 -6.1752,3.3792 -10.0176,5.2224z"/>
   <path id="_284302048" class="fil28" d="M325.68 321.563c0,-14.5848 7.5252,-22.0728 20.9544,-20.9556l-3.9384 -4.32 5.5968 -3.0972 -1.2516 -5.2236 -2.3112 -0.0588 1.3776 -1.0944 -2.6484 -0.1752 0.2124 -1.9056 -3.9672 1.4016 -0.0552 1.7736c0,1.3764 -1.6656,3.1692 -2.5392,3.81 -2.9064,-1.9464 -4.8324,-1.4604 -5.0808,-4.4448 -2.3568,1.1316 -6.9648,2.3484 -9.0408,3.6588 -3.7188,2.346 -4.554,4.1964 -6.834,5.8656l-0.7428 -3.3852 -2.3868 0.9636 -0.0456 3.0576 2.5152 0.7128c-0.2856,3.6612 -1.2444,1.2456 -1.2444,3.732l0 5.0796c0,2.508 2.3184,6.528 3.81,7.62l-1.4904 2.4024 2.1252 0.138 0 -1.2708 6.9852 5.7156z"/>
   <path id="_284302160" class="fil29" d="M217.729 247.267c5.2368,-0.1164 13.2156,-2.0988 19.6884,-2.5368 3.054,-0.2076 6.1884,-1.0908 9.1164,-1.6788 3.4764,-0.6972 8.166,0.666 9.2952,-2.1336l-7.5516 -7.0584 -18.4464 2.3124 -0.1176 -0.9876 17.82 -2.2128 -6.3084 -6.6588 -22.86 2.5404 -1.9056 0 0 5.7144c0,2.9484 5.0652,1.9056 8.2548,1.9056l-0.018 0.456 -7.7496 0.8268 0.7824 9.5112z"/>
   <path id="_284302384" class="fil30" d="M396.164 284.732l-0.6348 13.3356c6.3564,-1.4808 19.4316,-7.83 26.2104,-10.62 10.8708,-4.4736 19.98,1.1832 21.414,-16.05l-2.1876 2.3208c-12.522,0.2184 -34.398,8.5896 -44.802,11.0136z"/>
   <path id="_285682928" class="fil31" d="M518.573 296.782l0.1464 3.1908c0,2.34 3.1524,13.8528 3.9612,18.9 1.2684,7.9296 -1.5336,13.5588 -2.0556,19.8348 7.32,-1.7052 12.0648,-10.1148 12.0648,-19.05 0,-11.6052 -5.7312,-29.0844 -13.236,-31.104l-0.8808 8.2284z"/>
   <path id="_285682736" class="fil32" d="M248.209 284.098l0 1.9056 2.0136 2.442 -1.6824 8.934 17.412 4.0296 0.0372 -2.706c0,-7.836 -5.94,-31.6632 -9.5244,-34.29 -5.094,7.6068 -4.6152,12.0984 -8.256,19.6848z"/>
   <path id="_285682544" class="fil33" d="M266.726 291.51l-0.7248 0.132 5.682 0.852 7.6416 -0.1416c-1.5864,-6.8088 -1.9788,-11.5188 -4.2024,-18.0228 -2.73,-7.9872 -4.0668,-8.058 -7.8636,-13.7268l-8.7324 1.86 8.1996 29.0472z"/>
   <polygon id="_285682352" class="fil34" points="122.48,290.448 126.29,307.592 138.99,305.688 133.072,276.385 120.575,278.384 "/>
   <path id="_284303112" class="fil35" d="M239.32 224.407l-14.6052 -13.9692c-3.2796,-0.876 -3.9036,-4.4448 -6.3492,-4.4448l-4.2132 -0.0204 1.6728 22.2444c4.0512,0 7.974,-0.918 12.0456,-1.2888 2.5872,-0.2352 10.5912,-0.3948 11.4492,-2.5212z"/>
   <path id="_86351968" class="fil36" d="M421.565 223.138l0 19.05c5.2872,-0.4404 7.302,-2.2848 11.952,-0.0096l0.7476 -10.7856 0 -1.2696c0,-2.0436 -7.848,-2.9604 -9.5244,-10.1604l-2.5404 0c-0.3324,1.4244 -0.6348,1.4604 -0.6348,3.1752z"/>
   <path id="_86352080" class="fil37" d="M325.68 321.563l3.174 5.0796 1.9596 0.6012 -0.6888 -1.236 -3.8316 -8.0112 0.6564 -0.2436c5.85,-1.3632 9.6636,-4.5636 12.5868,-9.0024 3.9708,-6.03 -0.5316,-11.0208 10.908,-4.968l0.378 -0.5472 -4.188 -2.628c-13.4292,-1.1172 -20.9544,6.3708 -20.9544,20.9556z"/>
  </g>
 </g>
</svg>
