<?xml version="1.0" encoding="UTF-8"?>
<!DOCTYPE svg PUBLIC "-//W3C//DTD SVG 1.1//EN" "http://www.w3.org/Graphics/SVG/1.1/DTD/svg11.dtd">
<!-- Creator: CorelDRAW -->
<svg xmlns="http://www.w3.org/2000/svg" xml:space="preserve" width="600px" height="600px" style="shape-rendering:geometricPrecision; text-rendering:geometricPrecision; image-rendering:optimizeQuality; fill-rule:evenodd; clip-rule:evenodd"
viewBox="0 0 600 600"
 xmlns:xlink="http://www.w3.org/1999/xlink">
 <defs>
  <style type="text/css">
   <![CDATA[
    .fil0 {fill:#1F1A17}
    .fil1 {fill:white}
    .fil76 {fill:#606060}
    .fil39 {fill:#613030}
    .fil34 {fill:#6F2828}
    .fil75 {fill:#746C5C}
    .fil54 {fill:#818181}
    .fil35 {fill:#887D66}
    .fil51 {fill:#8C8C8C}
    .fil36 {fill:#8F2F2F}
    .fil42 {fill:#8F8F8F}
    .fil52 {fill:#929292}
    .fil71 {fill:#958A74}
    .fil40 {fill:#989898}
    .fil61 {fill:#9A9998}
    .fil41 {fill:#9C9C9C}
    .fil47 {fill:#9F9F9E}
    .fil20 {fill:#A1A1A1}
    .fil31 {fill:#A4A4A4}
    .fil26 {fill:#A6A6A6}
    .fil33 {fill:#A7A7A7}
    .fil12 {fill:#A89A7E}
    .fil68 {fill:darkgray}
    .fil17 {fill:#AAAAAA}
    .fil14 {fill:#ACACAC}
    .fil65 {fill:#ADADAD}
    .fil56 {fill:#AEA697}
    .fil24 {fill:#AEAEAE}
    .fil3 {fill:#B0B0B0}
    .fil11 {fill:#B1A181}
    .fil7 {fill:#B3B3B3}
    .fil73 {fill:#B6B4B2}
    .fil70 {fill:#B6B6B6}
    .fil67 {fill:#B8B3A8}
    .fil43 {fill:#BAB5AE}
    .fil6 {fill:#BABABA}
    .fil74 {fill:#BCAB8A}
    .fil55 {fill:#BDBDBD}
    .fil48 {fill:#BEBEBE}
    .fil46 {fill:silver}
    .fil10 {fill:#C2C2C2}
    .fil62 {fill:#C5C5C5}
    .fil18 {fill:#C8C8C8}
    .fil8 {fill:#C92F2F}
    .fil72 {fill:#CAB894}
    .fil44 {fill:#CACAC9}
    .fil66 {fill:#CCCCCC}
    .fil60 {fill:#CDCDCD}
    .fil69 {fill:#CECDCC}
    .fil58 {fill:#CECECE}
    .fil4 {fill:#D0D0D0}
    .fil64 {fill:#D1CFCB}
    .fil38 {fill:#D4D4D4}
    .fil16 {fill:#D6D6D6}
    .fil9 {fill:#D7D6D4}
    .fil53 {fill:#D8D0C0}
    .fil19 {fill:#D9D9D9}
    .fil15 {fill:#DADADA}
    .fil22 {fill:#DBDBDB}
    .fil63 {fill:#DCC9A5}
    .fil27 {fill:gainsboro}
    .fil30 {fill:#DDDDDD}
    .fil25 {fill:#DEDEDE}
    .fil32 {fill:#DFDFDF}
    .fil59 {fill:#E1DED8}
    .fil37 {fill:#E1E1E1}
    .fil45 {fill:#E2E2E2}
    .fil2 {fill:#E9E9E9}
    .fil50 {fill:#EDECEA}
    .fil5 {fill:#F1F1F1}
    .fil49 {fill:whitesmoke}
    .fil21 {fill:#F7F7F7}
    .fil57 {fill:#F8F8F8}
    .fil13 {fill:#F9F9F9}
    .fil23 {fill:#FBFBFB}
    .fil29 {fill:#FCFCFC}
    .fil28 {fill:#FDFDFD}
   ]]>
  </style>
 </defs>
 <g id="Livello_x0020_1">
  <metadata id="CorelCorpID_0Corel-Layer"/>
  <g id="_84910608">
   <path id="_86371424" class="fil0" d="M204.005 342.209l-102.898 42.0168 -7.1976 -15.2772 -1.5132 2.8608 10.356 43.3056c4.0896,13.6776 4.5636,29.0532 -10.4244,34.3464 -8.1852,2.892 -18.1968,1.9608 -24.0372,-3.69 -6.3252,-5.412 -6.834,-9.1248 -8.1756,-16.6764l-11.1948 -69.276 -6.8496 -12.864c-1.9704,-3.1332 -2.4228,-6.0804 -2.4228,-9.708 0,-12.6288 18.1704,-14.7084 27.6072,-15.468 1.8456,-0.1476 4.6164,-1.4316 6.4464,-2.2656l-1.554 -5.1468 86.2176 -33.5592c-1.2816,-7.0968 -3.7848,-14.8992 -2.1744,-22.1208l-83.0256 -12.78c2.6868,9.5748 -5.0988,22.5792 -11.748,25.0908 -11.1648,4.218 -21.9756,2.0856 -28.7772,-4.3416 -2.8716,-2.7144 -4.2504,-5.922 -5.7264,-10.2372l-4.3536 -19.362 -6.5592 -1.3428 3.9624 -42.6312 0.6348 -19.956 9.8124 0.2184c10.6824,0.2376 20.064,4.3044 29.1912,9.3204l0.9324 -0.4128 1.8468 -11.8692 98.712 19.0416c9.6912,-4.1532 21.4044,-5.508 31.5864,-2.676l96.3972 -7.056c9.0984,-3.3372 12.0384,-3.0276 21.6468,-1.3332l22.1256 7.7964 92.1228 -34.11 18.918 3.678c2.7924,-2.7924 10.674,-5.2932 14.3856,-6.7776l19.116 3.7104 3.0384 12.3888 87.0012 17.5068c13.4604,2.7072 19.3836,11.5956 15.3,25.2684 -2.5932,8.6868 -14.796,17.208 -23.808,14.1684l-80.574 -20.3988c-3.1776,2.3052 -7.3572,3.39 -11.5548,3.8856l0.4608 3.1464 -53.574 21.4056c1.6176,13.9032 2.3364,21.0132 -6.9108,32.136l18.144 3.888 6.33 0 7.914 3.9576c1.1544,1.5744 5.5884,0.7308 7.3524,0.3756 6.3252,-1.2768 13.9788,0.666 20.0976,3.2868l11.0676 4.9896 -2.6784 8.2488 81.66 40.3944c6.7212,3.324 10.6884,14.9124 4.884,23.9448 -5.6052,8.7252 -18.426,12.0024 -27.5316,7.2612l-67.3776 -35.0808 -2.1096 27.2352c8.6112,4.1268 11.562,5.4624 16.2552,14.9712l25.7448 16.9968 -3.072 39.8772 -77.6268 17.8776 -13.6296 -11.4852 -24.7704 5.082 -116.156 -106.616 -1.188 0.1452c-4.2912,11.4936 -11.1108,20.3784 -20.7708,25.1088 -14.5848,7.1412 -33.7404,5.0028 -45.3036,-10.4136z"/>
   <path id="_283921864" class="fil1" d="M52.4232 189.293l0.4884 0.7812 3.9564 3.6636 0 0.6348c-1.2312,0.5448 -7.902,-4.92 -11.298,-5.8464 -3.5376,-0.966 -10.8756,-3.0432 -15.372,-3.0432l0 -2.5404c2.9388,0.0648 9.0156,1.3596 11.814,2.1564 4.0956,1.1652 7.9404,3.618 10.4112,4.194zm138.406 9.4884l3.1068 2.0172 1.326 1.968 -2.5044 -0.774 -9.5292 3.1824 -2.5356 -1.278 -1.932 -2.7996 12.7272 -1.0104 -0.0924 -0.318 -4.3524 -1.5864c-0.558,0.354 -10.0212,3.1752 -10.7952,3.1752 -2.1888,0 -2.4588,-0.4704 -4.6644,-0.7728l1.4892 -2.4024 1.2708 -0.6348c3.4164,-0.0768 5.1828,-1.2708 8.8896,-1.2708 2.9628,0 5.394,1.9464 7.62,2.5404l-0.0252 -0.036 0.0012 0zm8.2608 5.7732l1.5204 1.614 -0.0264 0.0252 2.9688 2.784 -5.7144 0c-1.9644,-0.1968 -5.4,1.0848 -7.62,1.2696l-1.2708 0 -5.0988 -5.1912 8.274 -1.1592 2.5404 0c2.1888,0 2.4588,0.4704 4.4268,0.6576zm156.228 88.242l-0.0444 1.9872 5.124 2.4588 5.0808 1.2696c1.986,0.1656 2.2548,0.6348 4.4448,0.6348l12.6996 0c5.8788,0 9.1848,-1.4556 12.6996,-3.81l0.36 -1.1472 -0.9948 -2.6628 -12.0648 -3.1752 -4.4448 -0.6348c-10.6908,0 -16.5468,0.4548 -22.86,5.0796zm30.48 19.686c0.7764,2.91 3.5952,4.7976 6.9852,5.0796l10.7952 1.9044c13.3056,0 17.6148,1.194 26.034,-4.4448l-1.9044 -5.0796c-5.3304,-0.444 -10.2336,-3.81 -19.6848,-3.81l-3.81 0c-7.9824,0 -15.6156,1.0596 -18.4152,6.3504zm45.72 -35.5608l-2.5404 -1.2696 -5.0796 0 11.43 5.7144 2.634 1.0164c-12.0216,0.2544 -27.462,-4.44 -33.7488,-9.906l1.9044 0 0 -0.6348 -6.9732 -0.7248 12.054 7.0752 2.5392 1.2696 1.9056 1.2696 32.3844 4.4448 -4.6212 -2.1648 0.258 -0.6 4.3632 1.4952c2.9196,0 4.1148,0.7068 6.0876,0.4212 1.7388,-0.252 4.3356,-1.2468 5.9772,-1.056l4.446 0c-3.5256,-1.692 -10.9908,-4.5132 -16.1292,-3.4764 -4.386,0.8844 -13.0956,1.2084 -15.6216,-2.2392l-1.2696 -0.6348z"/>
   <polygon id="_84978808" class="fil2" points="368.017,287.082 375.637,287.082 368.017,282.637 "/>
   <path id="_83666432" class="fil2" d="M314.677 255.967l-5.0796 0c0.228,1.782 -0.0744,2.5392 1.9044,2.5392l3.1752 0 0 -2.5392z"/>
   <polygon id="_85737840" class="fil3" points="268.322,210.247 273.402,212.153 273.371,201.452 272.132,200.723 268.957,200.087 "/>
   <path id="_286257424" class="fil3" d="M209.903 257.237c0,6.492 1.9464,12.0816 5.7144,14.6052l-3.7656 -13.1796 -1.9488 -1.4256z"/>
   <path id="_284548872" class="fil4" d="M170.533 280.732l0.6348 0 0 -4.4448 0 -0.6348c0,-3.9024 0.6492,-7.4112 3.81,-8.2548l-5.0808 -3.81 -1.236 0.6888 -0.81 5.64 0.1416 0.6564c0,4.8996 1.7148,6.6192 2.5404,10.1592z"/>
   <path id="_83626688" class="fil4" d="M178.153 283.907l0.6348 -3.1752c2.0712,1.0956 2.2896,0.8124 2.5848,3.6924l1.86 0.7524c0.42,-1.8012 0.6348,-1.0848 0.6348,-2.5392 0,-1.0644 -3.2532,-4.5924 -5.0796,-5.0808l-0.6348 6.3504z"/>
   <polygon id="_85207256" class="fil5" points="262.608,194.372 261.337,193.738 250.012,191.292 249.767,192.12 267.602,200.896 268.86,197.501 "/>
   <polygon id="_85108136" class="fil5" points="362.938,263.587 367.559,263.848 362.938,261.682 "/>
   <polygon id="_86961968" class="fil6" points="360.397,310.577 366.748,312.482 366.715,299.242 365.478,298.512 360.397,297.242 361.087,298.478 "/>
   <path id="_85701576" class="fil6" d="M341.982 263.587l-0.0312 7.524 -1.2384 0.7308 3.81 0 3.1668 -0.7188 0.0084 -4.3608c0,-2.6736 -2.8188,-2.226 -4.4448,-4.446l-1.2708 1.2708z"/>
   <polygon id="_86088080" class="fil6" points="296.262,270.572 299.473,270.521 306.422,275.017 306.422,269.936 "/>
   <path id="_85788744" class="fil7" d="M249.907 313.117l-10.1592 -3.1752 14.6664 16.4064 0.5736 -0.5316 0 -3.1752c0,-4.4544 -2.394,-7.7256 -5.0808,-9.5244z"/>
   <polygon id="_285331152" class="fil7" points="173.707,298.512 176.882,297.877 171.803,290.892 171.269,291.487 "/>
   <polygon id="_284800048" class="fil7" points="312.773,250.252 313.408,254.696 315.312,254.696 315.312,252.792 315.312,251.522 316.71,250.379 319.122,250.252 319.122,248.982 "/>
   <path id="_84070384" class="fil8" d="M251.178 275.017l-3.1752 3.1752 -1.2708 3.174 24.7656 -2.5392 1.2696 -1.9056c-2.2512,-1.5072 -12.8256,-10.1592 -14.6052,-10.1592 -2.2092,0 -4.1136,6.3324 -6.984,8.2548z"/>
   <polygon id="_84628776" class="fil8" points="288.642,291.527 288.487,289.192 274.673,278.827 272.767,278.827 "/>
   <path id="_86576904" class="fil9" d="M307.057 241.997l3.7896 0.732 0.3072 -2.0688 0.348 2.6064 1.3656 0.3504 -1.3656 0.2856 0 2.5392 -4.4448 0.6348 0 3.81c4.2576,-2.2524 8.1192,-3.174 14.6052,-3.174l3.8772 -0.4692 15.8076 3.0084 0 -5.0796 -1.2696 0 -2.5404 -1.9056 -1.2696 -0.6348 -10.7568 2.1384 -3.8484 -0.2328 -6.9732 -0.7248c3.6432,-3.0876 6.3384,0.4068 6.3384,-6.8952l-14.04 2.1744 0.0696 2.9052z"/>
   <polygon id="_284957896" class="fil9" points="296.262,250.886 305.788,248.982 305.788,240.092 296.262,240.092 "/>
   <polygon id="_285371632" class="fil10" points="428.342,386.142 442.313,389.317 442.948,374.077 428.342,370.902 "/>
   <polygon id="_86858880" class="fil10" points="392.148,332.167 401.038,334.072 404.684,334.061 405.466,320.191 403.578,319.466 392.783,317.562 "/>
   <path id="_85003448" class="fil10" d="M172.438 274.382c0,4.05 -0.0348,9.3024 3.1752,10.1592l0.6348 -8.2548 -1.524 -2.43 -1.2384 1.6548 -1.0476 -1.1292z"/>
   <path id="_285313032" class="fil11" d="M254.352 301.052c3.2544,6.1932 7.62,7.2408 7.62,17.7792l10.7892 -1.3164 0.006 -8.8428 -0.7416 -9.5148 -17.6736 1.8948z"/>
   <path id="_85622032" class="fil11" d="M321.662 233.742c1.9212,2.622 14.3484,1.884 19.6848,4.4448l0 -6.3504 -19.6848 1.9056z"/>
   <path id="_85701920" class="fil12" d="M254.352 241.997l0.636 1.2696c2.6244,3.0204 3.81,10.1292 3.81,15.876l1.9188 0.1476 9.6384 -0.7908 -0.7632 -15.8676 0.0084 -4.3536 -15.96 1.2036 0.7116 2.5152z"/>
   <path id="_85791392" class="fil12" d="M218.792 251.522l-1.2648 5.0028 4.44 0.7116c3.4428,-1.8216 9.084,-7.0008 6.3504,-12.6996l-1.2372 -0.69 -8.2884 7.6752z"/>
   <path id="_285855952" class="fil12" d="M189.583 282.002l0.6348 1.2696c2.5392,-0.2112 2.6904,-0.3768 3.81,-1.9056l-1.8288 -1.362 -0.0768 -1.1772 -2.5392 3.1752z"/>
   <path id="_85590608" class="fil12" d="M331.188 204.533l0 1.2696 4.4448 0 0.6348 0 -1.2696 -1.2696c-0.57,-0.6816 0.7596,-0.636 -1.9056,-0.636 -1.2252,0 -1.1304,0.2004 -1.9044,0.636z"/>
   <path id="_283869056" class="fil13" d="M166.723 259.142l3.81 3.174 -0.636 1.2708 5.0808 3.81 0 0.6348 4.4448 5.0796 0 0.6348 5.7144 5.7156c1.5948,-1.068 5.7156,-4.5984 5.7156,-6.9852 0,-2.0712 -9.0336,-8.4816 -10.1604,-12.6996 1.614,-3.0516 5.0604,-4.9812 9.5256,-5.0808l-0.0216 -2.3988 -5.694 -0.7752c-0.1488,1.7928 0.0156,2.5392 -1.9044,2.5392l-1.2708 0c-3.4668,0 -3.5172,-1.2696 -6.984,-1.2696l-1.2708 0c-1.6056,0 -5.8572,4.9884 -6.3492,6.3504z"/>
   <path id="_84867256" class="fil13" d="M453.108 161.352l-3.1752 1.9056 -1.2708 1.2696 0 1.2696 3.222 1.1724 0.588 5.178c2.2308,-0.5952 4.4664,-5.3232 6.8532,-7.1172 1.9764,-1.4856 8.2776,-3.1032 9.0228,-4.9476l-8.8908 -1.2696 -6.3492 2.5392z"/>
   <path id="_85663040" class="fil13" d="M267.688 201.992c-4.038,-2.136 -7.9992,-3.9948 -12.2796,-6.1356 -6.8748,-3.4392 -5.0592,-3.39 -15.0252,-3.39l26.994 13.9476 0.3108 -0.612 0 -3.81z"/>
   <polygon id="_283920608" class="fil14" points="204.187,202.627 204.823,206.437 204.823,203.262 205.34,203.279 206.046,209.677 217.655,217.387 228.318,220.408 228.318,213.422 228.318,209.612 205.458,195.007 "/>
   <path id="_285584944" class="fil14" d="M361.668 254.696c-0.8316,-3.5688 -2.5404,-7.4088 -2.5404,-12.0648 0,-0.174 0.4368,-1.1604 0.6348,-1.9044l-17.0076 -7.9164 -0.1368 -5.4192 0 -3.8088 0 -3.81 -0.1908 25.4028 19.2408 9.5208z"/>
   <path id="_85703208" class="fil14" d="M380.718 230.567l-1.2708 1.2696 -1.2696 1.9056 12.9336 5.7768 11.196 4.3836c0,-8.526 -1.3296,-12.2484 -6.9852,-15.24l-5.6928 -0.7764 -0.6564 0.1416c-4.0836,0 -5.0616,1.7952 -8.2548,2.5392z"/>
   <path id="_285132384" class="fil14" d="M235.302 248.347l15.876 12.0648c0,-7.146 -1.452,-11.1156 -5.7156,-13.9704l-10.7952 -3.81 0.6348 5.7156z"/>
   <path id="_86906120" class="fil14" d="M378.178 261.682c-2.7048,-3.69 -7.62,-6.1608 -7.62,-13.9692l0 -6.3504c-2.6508,-0.2208 -5.0796,-2.8092 -5.0796,0.6348l0 3.81c0,6.7524 7.2588,14.6076 12.6996,15.8748z"/>
   <polygon id="_285331760" class="fil14" points="329.282,288.986 329.244,290.97 333.092,292.796 333.727,280.732 329.282,278.192 "/>
   <path id="_283813096" class="fil14" d="M399.768 299.147c-0.0732,-3.258 -1.1952,-5.0244 -3.1752,-6.3504l-0.0108 5.1036 3.186 1.2468z"/>
   <path id="_86577648" class="fil15" d="M403.578 319.466l1.8876 0.7248 -0.7812 13.8696 -3.6468 0.0108c3.432,2.178 12.4032,0.438 16.3752,-0.1344 5.5272,-0.798 9.8772,-1.8264 12.1992,-6.2148l0 -12.7008c-8.4192,5.6388 -12.7284,4.4448 -26.034,4.4448z"/>
   <path id="_285616368" class="fil15" d="M287.372 236.917l0.6348 1.9044c6.4968,-3.1164 15.1992,-1.9044 22.86,-1.9044 1.4244,-0.3324 1.4604,-0.6348 3.1752,-0.6348l5.7156 0 0 -6.3504c0,-2.8908 -12.2964,-4.2372 -15.2916,-4.1628l-17.094 2.8932 0 8.2548z"/>
   <path id="_283867648" class="fil16" d="M442.948 374.077l-0.6348 15.24c13.4412,0 26.0352,-0.534 26.0352,-13.9704l-0.636 -6.9852c-8.2968,5.556 -11.2212,5.7156 -24.7644,5.7156z"/>
   <path id="_285616848" class="fil16" d="M365.478 298.512l1.2372 0.7296 0.0324 13.2408 17.7804 0c2.274,-4.2996 4.7952,-5.8512 10.794,-6.3504l0 -10.7952c-3.5148,2.3544 -6.8208,3.81 -12.6996,3.81l-12.6996 0c-2.19,0 -2.4588,-0.4692 -4.4448,-0.6348z"/>
   <path id="_86577144" class="fil17" d="M258.184 260.609l-0.9156 3.3168 30.7392 23.1564 0 -14.6052c0,-2.0568 -15.2616,-12.0024 -17.76,-13.1532l-12.0636 1.2852z"/>
   <polygon id="_86140832" class="fil17" points="242.922,231.202 243.558,231.202 242.922,218.502 230.274,210.799 230.857,209.612 228.953,209.612 229.774,221.664 "/>
   <polygon id="_284777280" class="fil17" points="231.492,205.168 237.846,208.27 242.922,208.978 247.368,208.343 243.558,208.343 243.558,207.707 246.732,207.707 223.237,193.738 222.643,199.385 "/>
   <polygon id="_285680912" class="fil17" points="194.663,261.047 195.298,261.682 206.093,271.842 202.918,261.682 202.202,257.878 190.218,247.712 "/>
   <path id="_85702760" class="fil18" d="M272.132 258.506l15.8748 11.43 15.24 -1.2696 0 -9.5244 1.2708 0 0 8.8896 2.046 -0.0204 -0.9132 -3.894 2.0412 -1.8012 0.636 -1.2696 2.6532 -1.6932 -3.2892 -0.8472c-3.042,-2.6436 -6.2988,-1.2696 -12.0648,-1.2696l3.0936 -1.5276 -10.7136 -7.362c-1.674,0.8292 0.5232,0.6348 -1.9044,0.6348l-2.5404 0 0 10.1604 14.5812 -1.5024 0.0888 0.8604 -15.2724 1.59 -0.0324 -2.2188 -10.7952 0.6348z"/>
   <path id="_85314072" class="fil18" d="M315.312 262.952l1.2708 0.6348c0.7344,-2.028 4.7184,-2.9412 7.6512,-2.7708l8.8584 1.5 -0.4944 -10.8036 -11.5704 -0.6264 -4.4196 0.7716 -1.296 11.2944z"/>
   <path id="_86096896" class="fil18" d="M402.307 243.902l-11.196 -4.3836 -12.9336 -5.7768 -0.6348 0 0 0.6348 0.7188 3.1668c4.9428,1.1796 6.4872,3.57 11.4252,5.0088 4.9416,1.44 6.9108,3.8892 12.6204,3.8892l0 -2.5392z"/>
   <path id="_83542184" class="fil18" d="M208.633 322.642c0.3312,-1.4244 0.6348,-1.4592 0.6348,-3.1752l0 -1.9044c0,-1.2864 -10.6248,-13.6404 -12.0648,-14.6052l-0.2628 5.4216 11.6928 14.2632z"/>
   <polygon id="_85808072" class="fil18" points="308.963,276.922 315.402,278.815 314.677,271.842 314.502,268.933 308.328,264.857 "/>
   <path id="_84953872" class="fil18" d="M273.402 212.153l6.3504 0.6348c-0.4356,-0.7752 -0.6348,-0.6792 -0.6348,-1.9056l-0.018 -8.8032 -6.9672 -1.356 1.2384 0.7296 0.0312 10.7004z"/>
   <polygon id="_86941776" class="fil18" points="307.057,241.997 307.057,247.076 311.502,246.442 311.502,243.902 312.868,243.617 311.502,243.266 311.154,240.66 310.847,242.729 "/>
   <path id="_284404224" class="fil19" d="M542.008 351.852c8.2188,0 12.6996,-3.054 12.6996,-10.7952l0 -1.9044c0,-2.1828 -2.916,-3.636 -4.4448,-4.446 -2.0532,1.3032 -2.556,0.0204 -4.9344,2.0508 -1.6248,1.3872 -2.1096,2.4288 -3.9348,3.6228l-89.556 -44.4084 -1.2696 3.81c4.872,1.1352 7.7628,2.5824 11.3112,5.1996 3.906,2.8812 5.8836,1.4256 11.1636,5.346 2.4984,1.854 18.6072,8.694 22.8252,10.83 4.3584,2.2068 18.8304,9.4356 21.9588,11.6964 5.8992,4.2636 16.2996,7.3764 21.8712,11.478l2.31 7.5204z"/>
   <path id="_285616464" class="fil19" d="M340.712 282.002l0 12.6996 13.3356 0 0.6348 -2.5404c2.4432,-3.6492 7.23,-3.9528 12.0648,-5.0796l-0.6348 -9.5256c-0.9768,3.6576 -14.0064,5.7492 -19.05,5.0808l-6.3504 -0.6348z"/>
   <path id="_285582424" class="fil19" d="M399.132 290.257l1.8288 2.6316 -1.8288 -1.362 0 -1.2696zm-29.2092 -8.2548l5.7144 3.174c2.7384,-0.6372 3.4788,-1.9044 6.9852,-1.9044l2.5404 0c2.3016,0 3.5436,0.5328 5.0796,1.2696l1.2696 0c2.5992,1.3752 6.0576,3.3804 7.62,5.7156l-1.2696 0 -5.7144 -4.4448 -10.1604 1.2696 -3.81 0.6348 4.4448 0.6348 3.1752 -0.6348c2.3604,-0.228 7.9056,2.34 8.8896,3.81l1.9056 1.2696c1.98,1.326 3.102,3.0924 3.1752,6.3504l2.7 1.2492 -0.528 -6.4236 0.7344 2.094 0.7548 -0.2412 -3.0264 -10.0128c-2.598,-1.74 -2.9556,-3.5832 -6.9852,-5.7156l0 -1.2696 -1.9056 0 -0.6348 -1.2708 -1.9044 -0.6348c-1.8708,1.1868 -7.0524,0.1848 -10.4364,0.99 -3.7308,0.8868 -5.6172,3.2904 -8.6136,4.0908z"/>
   <path id="_86179776" class="fil19" d="M186.408 229.932l-1.9056 -0.6348 0 1.2696 2.9472 3.138 -2.3124 15.912c-0.1356,0.8436 0.9456,1.2696 1.9056,1.2696l2.5404 0 0 -8.2548c0,-5.2608 3.3888,-12.6216 6.3492,-14.604l2.5404 -2.5404 7.62 -5.7144c-8.9904,0 -12.276,5.4204 -15.8748,10.794l-3.81 -0.6348z"/>
   <polygon id="_284648296" class="fil19" points="26.274,228.018 30.1668,228.815 28.8876,214.697 27.0228,214.692 27.1716,217.244 "/>
   <polygon id="_84844096" class="fil19" points="341.982,209.612 343.253,214.057 344.522,213.422 347.063,211.517 348.967,211.517 349.602,210.882 352.87,208.494 349.602,207.072 "/>
   <path id="_85107672" class="fil20" d="M453.108 305.497l12.0648 6.3492 76.8348 40.0056 -2.31 -7.5204c-5.5716,-4.1016 -15.972,-7.2144 -21.8712,-11.478 -3.1284,-2.2608 -17.6004,-9.4896 -21.9588,-11.6964 -4.218,-2.136 -20.3268,-8.976 -22.8252,-10.83 -5.28,-3.9204 -7.2576,-2.4648 -11.1636,-5.346 -3.5484,-2.6172 -6.4392,-4.0644 -11.3112,-5.1996l1.2696 -3.81 0 -1.2696c-1.512,1.1076 -1.9044,2.4432 -1.9044,5.0796l0 0.6348c0,2.52 1.2912,4.3992 3.1752,5.0808z"/>
   <path id="_86417032" class="fil20" d="M418.918 366.184c0,12.018 -0.6876,17.6016 9.4248,19.9584l0 -15.24 -8.2548 -5.7156 -0.9024 -1.0884 -0.2676 2.0856z"/>
   <polygon id="_283921528" class="fil21" points="75.2832,189.293 188.312,210.247 180.692,203.897 159.103,198.817 149.578,196.913 123.542,191.832 107.668,188.657 71.79,181.673 "/>
   <path id="_286331752" class="fil21" d="M63.2172 207.072l0.7308 1.2384c5.2152,0.0324 7.104,0.9528 8.7948,4.4772l2.5404 -0.6348c-1.0548,-4.524 -1.7736,-1.3524 -3.4044,-4.2168 -1.4112,-2.478 0.2292,-3.1908 -2.946,-4.0392l1.278 2.5356c-3.4764,0.0048 -5.928,-1.9992 -6.9936,0.6396z"/>
   <polygon id="_85008192" class="fil22" points="427.835,193.229 414.223,198.634 418.182,217.867 456.656,202.516 455.647,195.642 453.474,184.792 442.456,188.999 442.189,188.402 449.594,184.829 "/>
   <path id="_86577480" class="fil22" d="M268.957 200.087l3.1752 0.636 6.9672 1.356 0.018 8.8032c0,1.2264 0.1992,1.1304 0.6348,1.9056 6.336,0 17.1156,0.2448 20.3196,-2.5404l0 -10.7952c-2.6256,1.26 -10.9284,3.6024 -14.604,1.2708l-7.62 0 0 -0.636 10.7988 -0.5736 5.7108 -0.696 -8.2548 -1.9044 -4.4448 0c-4.1508,0 -11.568,0.0468 -12.7008,3.174z"/>
   <path id="_287438632" class="fil22" d="M75.918 212.153l106.68 19.0488 -0.0096 -1.8516 -53.3304 -10.2132 -6.3444 -0.678c-2.628,-0.3048 -2.5596,0.0876 -4.4508,-1.2264 -3.6828,0 -4.6872,0.3264 -6.9852,-1.2696l-13.3392 -1.8792c-2.6148,-0.4776 -2.3904,0.1284 -4.4412,-1.296l-17.7864 -2.4996 0.0072 1.8648z"/>
   <path id="_85662440" class="fil22" d="M190.218 210.247l0 6.3504c9.4608,-2.2044 6.9252,-1.2708 15.8748,-1.2708l0 0.636 -3.81 0 5.0796 0.6348 2.862 -0.9156 -6.672 -6.7044 -5.7144 0c-1.9644,-0.1968 -5.4,1.0848 -7.62,1.2696z"/>
   <path id="_85008288" class="fil23" d="M451.837 294.702l0 1.2696 89.556 44.4084c1.8252,-1.194 2.31,-2.2356 3.9348,-3.6228 2.3784,-2.0304 2.8812,-0.7476 4.9344,-2.0508l-4.4448 -2.5392 -3.81 -1.9056 -13.3356 -6.3492 -2.5392 -1.2708 -13.3356 -6.3492 -2.5404 -1.2708 -14.604 -6.9852 -2.5404 -1.2696 -14.6052 -6.9852 -1.2696 -0.6348c-6.5928,-0.5484 -11.0472,-7.62 -21.5904,-7.62l-3.81 3.1752z"/>
   <path id="_84075824" class="fil23" d="M460.092 175.322l0 0.6348c4.4268,0.0984 6.5844,2.4444 12.5556,3.3192 4.0728,0.5976 8.568,2.3736 12.264,2.9772 8.4564,1.3812 16.5756,3.5256 25.092,5.3868 8.82,1.9284 16.5,3.7572 25.4004,5.7156 4.9848,1.0968 22.0656,4.746 25.6536,4.8264 2.6328,-4.9752 3.0564,-3.222 6.9852,-5.7156l-104.141 -20.9544 -3.81 3.81z"/>
   <path id="_83334472" class="fil23" d="M213.078 283.272l-1.2708 0.6348c-0.2052,0.2808 -8.5956,6.3636 -9.5244,6.9852l-3.81 8.2548 12.0648 13.9704c4.092,-7.7328 12.528,-17.1456 24.1296,-17.1456l3.1752 0c5.7912,0 7.1592,1.5456 11.43,2.5404 -1.4124,-2.1096 -11.7228,-11.6052 -13.9464,-12.7236 -2.9808,-1.4976 -8.5872,0.0516 -12.4968,-0.8388 -6.1956,-1.41 -2.3304,-1.6776 -9.7512,-1.6776z"/>
   <path id="_284403888" class="fil23" d="M142.592 301.052l0.69 -1.2372 27.8472 -10.2912 0.6732 1.368 5.0796 6.9852c0.378,1.0692 -12.0372,5.3064 -14.6052,6.3492 -2.3652,0.9624 -13.8492,5.7156 -15.8748,5.7156 -0.876,0 -4.8948,-7.6656 -5.7144,-8.8896l1.9044 0zm57.15 -23.496l-1.9044 1.2708c-4.056,6.0552 -10.4628,6.318 -17.1456,9.5244l-3.1752 -3.81 -45.78 17.178 8.316 14.5728 46.9896 -19.05 -1.9056 -4.446c3.198,-1.5336 12.15,-4.3356 14.1456,-6.174 3.4584,-3.186 6.6612,-6.672 12.5244,-7.1604l0 -0.6348 -3.81 -3.81 -8.2548 2.5392z"/>
   <path id="_285898136" class="fil23" d="M349.602 210.882l-0.6348 0.6348 -6.3492 8.256 0 3.81 19.6848 8.2536c0.8736,-3.7524 6.27,-9.5856 9.042,-11.9124 5.4876,-4.6056 13.4916,-3.816 15.7224,-5.232 -6.7524,-1.5732 -17.3916,-7.62 -24.1296,-7.62l-0.6348 0c-6.4488,0 -8.3136,2.7888 -12.7008,3.81z"/>
   <path id="_84798976" class="fil23" d="M246.732 207.707c1.674,-0.8292 -0.522,-0.6348 1.9056,-0.6348l6.9852 0 -5.7156 -3.81 -17.7792 -9.5244 -8.8908 0 23.4948 13.9692z"/>
   <polygon id="_86812688" class="fil23" points="205.458,195.007 228.318,209.612 235.474,208.073 231.492,205.168 212.406,194.435 "/>
   <path id="_85879824" class="fil23" d="M195.932 217.232l-1.2696 0.6348 -3.1752 1.9056 -1.2696 1.2696 -1.2708 1.9044c0,3.3588 0.078,6.2868 -2.5392,6.9852l3.81 0.6348c3.5988,-5.3736 6.8844,-10.794 15.8748,-10.794l6.282 -1.5552 0.0684 -0.9852 -1.9056 0c-1.7148,0 -1.7508,-0.3036 -3.1752,-0.6348l-5.0796 -0.6348 -6.3504 1.2696z"/>
   <path id="_83627112" class="fil23" d="M373.098 235.646c1.9908,-7.458 9.2412,-11.4288 19.05,-11.4288 -0.6192,-0.8448 -4.2948,-2.5404 -5.0808,-2.5404l-1.2696 0c-8.4072,0 -16.2492,5.4936 -17.7804,12.0648l5.0808 1.9044z"/>
   <polygon id="_85879304" class="fil23" points="298.168,196.913 310.813,201.391 311.502,202.627 319.106,201.817 286.738,189.293 282.934,190.007 "/>
   <polygon id="_284548552" class="fil23" points="182.598,258.506 182.598,260.412 185.446,263.968 186.408,263.587 193.661,260.266 190.78,255.122 "/>
   <path id="_284214272" class="fil23" d="M276.577 196.277l0.6348 0 5.0808 -0.6348 1.3644 -0.3492c-6.4524,-1.7664 -6.9948,-4.7304 -15.3348,-4.7304l-1.7916 1.0152 10.0464 4.6992z"/>
   <path id="_287440080" class="fil23" d="M336.268 205.802l-0.6348 0 -0.69 1.236 5.1348 2.574 1.9044 0 7.62 -2.5404c-1.4868,-0.3468 -5.8776,-2.166 -7.6308,-1.9812l-5.7036 0.7116z"/>
   <path id="_86906912" class="fil23" d="M375.637 285.176l6.3504 1.9056 10.1604 -1.2696 -1.2168 -0.0336 -0.6888 -1.2372c-1.536,-0.7368 -2.778,-1.2696 -5.0796,-1.2696l-2.5404 0c-3.5064,0 -4.2468,1.2672 -6.9852,1.9044z"/>
   <polygon id="_286130648" class="fil23" points="396.593,305.497 406.866,304.662 396.593,299.147 "/>
   <path id="_86088464" class="fil23" d="M294.358 198.817c-1.764,2.4084 -4.842,1.9056 -8.8896,1.9056 3.6756,2.3316 11.9784,-0.0108 14.604,-1.2708 -1.7208,-2.3496 -6.1536,-2.5392 -10.1592,-2.5392l-3.81 0 8.2548 1.9044z"/>
   <path id="_283921192" class="fil24" d="M461.363 187.387l100.33 25.4004c-1.1844,-1.7676 -2.5404,-2.1948 -2.5404,-5.0808l0 -6.984c-8.7792,-0.7308 -16.77,-3.228 -24.624,-5.2212 -2.7216,-0.6912 -8.7624,-2.9664 -12.1812,-3.0588 -3.7152,-0.0996 -9.5856,-1.032 -12.6084,-1.9968 -3.9768,-1.2684 -46.128,-11.3136 -48.3756,-11.3136l-1.9056 0 0.6348 -3.1752 0 -0.6348c-1.512,1.1076 -1.9044,2.4432 -1.9044,5.0796l0 1.2708c0,2.4468 1.3008,5.0364 3.1752,5.7144z"/>
   <path id="_84993184" class="fil24" d="M371.827 207.707l-1.9044 -10.1592 -19.05 -6.9852c-1.3296,2.0952 1.1004,9.7428 1.746,12.2232 1.4904,5.712 6.0288,3.0168 11.5884,3.0168 2.6904,0 4.512,1.6464 7.62,1.9044z"/>
   <polygon id="_86922624" class="fil25" points="72.7428,212.788 70.2024,233.107 70.2024,235.012 128.782,244.558 131.804,222.91 76.6068,213.389 75.918,212.153 75.2832,212.153 "/>
   <path id="_284404336" class="fil25" d="M63.2172 390.587l6.3504 36.8292c0.8112,4.5708 0.45,7.2792 5.2272,11.2836 4.818,5.0532 21.0828,3.1248 21.4428,-6.2028l0 -3.1752c0,-3.3516 -1.1808,-8.652 -2.5404,-10.7952l0.558 4.458c-2.4948,-1.374 -4.2312,-3.1884 -8.178,-3.1884l-4.4448 0c-4.5516,0 -7.4412,4.53 -10.1592,6.3504l-8.8908 -45.0852 0.6348 9.5256z"/>
   <path id="_285379512" class="fil25" d="M448.027 283.907l3.81 2.5404c-2.0904,4.3572 -3.2328,16.7796 -7.7124,17.2212l1.3632 1.8288 0 3.1752c2.8692,4.2852 7.1172,3.7788 12.8076,5.1132l1.128 -4.416 -6.3156 -3.8724c-1.884,-0.6816 -3.1752,-2.5608 -3.1752,-5.0808l0 -0.6348c0,-2.6364 0.3924,-3.972 1.9044,-5.0796l3.81 -3.1752c0.6228,-0.5412 1.1184,-1.2696 2.5404,-1.2696 2.7372,0 3.0636,1.2696 6.9852,1.2696l2.0136 -6.954 -2.6484 -1.3008 -4.446 0c-1.6416,-0.1908 -4.2384,0.804 -5.9772,1.056 -1.9728,0.2856 -3.168,-0.4212 -6.0876,-0.4212z"/>
   <path id="_84933016" class="fil25" d="M323.568 201.992l7.62 2.5404c0.774,-0.4356 0.6792,-0.636 1.9044,-0.636 2.6652,0 1.3356,-0.0456 1.9056,0.636l7.62 -1.2708c-2.0688,-1.5156 -0.5616,-1.4904 -3.5904,-2.76 -2.616,-1.0956 -2.0652,-0.612 -4.0296,-2.3196l-0.636 0 -10.794 3.81z"/>
   <path id="_85339856" class="fil25" d="M172.438 274.382l1.0476 1.1292 1.2384 -1.6548 1.524 2.43 3.1752 -3.1752 -4.4448 -5.0796c-2.0604,1.3788 -2.4672,3.0852 -2.5404,6.3504z"/>
   <polygon id="_86825912" class="fil26" points="390.242,423.606 391.512,400.111 333.194,350.461 333.092,372.172 "/>
   <path id="_85808760" class="fil26" d="M321.028 250.886l11.5704 0.6264 0.4944 10.8036c0.8892,2.6808 1.2696,0.504 1.2696,-0.6348l0 -1.9044c5.4036,0.45 5.3376,0.5244 7.62,3.81l1.2708 -1.2708 -3.0924 -2.8776 8.9628 2.0388 -7.4148 -5.304 2.1336 3.1908 -9.48 -2.1276c0,-2.3904 -1.2372,-5.0796 0.636,-5.0796 2.5416,0 3.156,1.308 5.874,1.6872l-2.0196 -1.5684 1.86 -0.7536c-3.3072,-2.8752 -13.2852,-2.5404 -19.6848,-2.5404l0 0.6348 6.9852 0 0 0.6348 -6.9852 0.6348z"/>
   <path id="_283885448" class="fil27" d="M392.148 343.597l-0.636 27.3048 25.4004 -4.4448 2.0052 -0.2736 0.5352 -4.1712c3.0192,-4.5108 13.1856,-8.442 20.9652,-7.722l13.9164 1.3656 0.678 -6.3444 1.2696 -16.5096 -64.134 10.7952z"/>
   <path id="_85832536" class="fil27" d="M222.602 324.547c8.2512,0 12.4032,-3.5292 15.24,-8.8908 1.4352,1.0524 15.24,15.5556 15.24,15.876 0,4.7652 -8.4864,10.1592 -13.9704,10.1592l-5.0796 0c-5.6448,0 -11.43,-7.356 -11.43,-13.3344l0 -3.81zm-2.5404 11.43c-2.5584,-1.8756 -4.4448,-7.7736 -4.4448,-12.7008 1.0836,0.726 2.5404,1.3824 2.5404,3.1752l0 0.6348c0,2.1096 1.3908,6.684 1.9044,8.8908zm33.0204 -25.4004l-1.2696 0 0 -1.2696 1.2696 1.2696zm-20.3196 1.9056c-1.6392,2.4468 -2.322,4.2888 -5.7156,5.0796 -3.99,3.4692 -1.7304,1.9572 -4.4448,5.0796l0 -2.5392c2.9832,-4.4556 5.52,-8.3532 11.1948,-10.3956 5.1324,-1.848 14.9424,-0.9636 16.11,3.4104 2.6868,1.7988 5.0808,5.07 5.0808,9.5244l0 3.1752 -0.5736 0.5316 -14.6664 -16.4064c-3.0192,0 -6.1572,0.252 -6.9852,2.5404zm15.8748 -5.7156l0.5292 -0.7404 0.7956 1.3416 -1.3248 0.0336c-3.12,-0.2592 -2.3268,-1.2696 -5.0796,-1.2696l-5.7156 0c-4.0752,0 -8.3556,2.0352 -10.6428,3.9624 -2.3808,2.0052 -5.538,6.3972 -7.1376,7.4676 -1.0824,-0.7248 -2.5392,-1.3812 -2.5392,-3.1752 0,-4.1676 11.6736,-12.0648 17.1444,-12.0648l2.5404 0c4.9308,0 8.9892,1.872 11.43,4.4448zm-50.1648 -7.62l-1.2696 3.81c1.44,0.9648 12.0648,13.3188 12.0648,14.6052l0 1.9044c0,1.716 -0.3036,1.7508 -0.6348,3.1752l1.2696 10.1604 1.9044 3.81 1.9056 2.5404c0.8724,-0.3864 5.7252,4.1328 7.8708,5.4636 2.76,1.7124 7.602,2.7912 11.814,2.7912l1.2696 0c3.3144,0 7.7436,-0.9912 9.5136,-2.616l-5.7036 0.7104 -4.4448 0c-5.2644,0 -12.9264,-5.6172 -13.9704,-9.5244 6.2712,4.1988 6.1896,8.8896 17.7804,8.8896 9.1164,0 20.3196,-9.4524 20.3196,-17.7804l0 -2.5392c0,-9.7776 -3.9396,-9.702 -5.0796,-13.9704 4.7484,3.18 6.3504,9.1308 6.6264,17.268l0.9936 -2.6628c0,-5.8992 0.8664,-9.6396 -1.2456,-14.6292 -1.9476,-4.6032 -6.402,-7.8624 -7.0092,-10.1364l-3.1752 -1.9044c-4.2708,-0.9948 -5.6388,-2.5404 -11.43,-2.5404l-3.1752 0c-11.6016,0 -20.0376,9.4128 -24.1296,17.1456l-12.0648 -13.9704z"/>
   <path id="_85008096" class="fil27" d="M32.7372 196.913c4.6728,0 9.5352,0.3396 12.066,2.5392l3.81 3.1752 1.2696 0c1.9464,3.6792 5.0796,9.882 5.0796,15.24l0.6348 1.9056 3.81 10.1592c3.7284,0.3096 8.7564,1.0248 10.7952,3.1752l2.5404 -20.3196c-1.6908,-3.5244 -3.5796,-4.4448 -8.7948,-4.4772l-0.7308 -1.2384 -1.2696 -3.81 -5.0796 -8.8896c-1.2312,0.5448 -7.902,-4.92 -11.298,-5.8464 -3.5376,-0.966 -10.8756,-3.0432 -15.372,-3.0432 -0.8304,1.6728 -0.6348,-0.5232 -0.6348,1.9044l0 8.2548 3.174 1.2708z"/>
   <path id="_85007712" class="fil27" d="M30.8328 230.567l0.6348 2.5404 0 -1.9056c1.9572,2.8176 2.01,10.5228 2.7912,14.9892 1.362,7.7784 1.8936,7.404 4.8288,12.9516l1.2696 1.2696c6.3876,1.488 3.8964,2.5404 13.9704,2.5404l1.9056 0 1.2696 -0.636c3.0084,-4.1052 6.9852,-3.5952 6.9852,-12.6996 0,-1.4976 -1.95,-6.5028 -2.5404,-7.62 -4.0164,-2.6892 -5.5572,-5.7144 -12.6996,-5.7144l-1.2708 0c-9.6768,0 -8.9604,4.6908 -13.3344,7.62l-4.4448 -27.9396 0.6348 14.604z"/>
   <path id="_285897560" class="fil27" d="M561.692 212.788c1.908,0.6996 3.8172,0.9036 5.7252,0.0156 5.6784,-3.5748 6.9744,-8.3856 6.9744,-14.6208 0,-1.7148 -0.3024,-1.7508 -0.6348,-3.1752 -0.7536,-1.4244 -2.1156,-2.5224 -3.81,-3.1752l-1.9044 0.6348c-3.9288,2.4936 -4.3524,0.7404 -6.9852,5.7156 -3.588,-0.0804 -20.6688,-3.7296 -25.6536,-4.8264 -8.9004,-1.9584 -16.5804,-3.7872 -25.4004,-5.7156 -8.5164,-1.8612 -16.6356,-4.0056 -25.092,-5.3868 -3.696,-0.6036 -8.1912,-2.3796 -12.264,-2.9772 -5.9712,-0.8748 -8.1288,-3.2208 -12.5556,-3.3192l-0.6348 3.1752 1.9056 0c2.2476,0 44.3988,10.0452 48.3756,11.3136 3.0228,0.9648 8.8932,1.8972 12.6084,1.9968 3.4188,0.0924 9.4596,2.3676 12.1812,3.0588 7.854,1.9932 15.8448,4.4904 24.624,5.2212l0 6.984c0,2.886 1.356,3.3132 2.5404,5.0808z"/>
   <path id="_85702592" class="fil27" d="M413.777 198.937l-28.14 10.2564 -4.0416 1.632 2.2968 1.962c8.4432,1.9668 14.1924,5.1228 18.4152,11.43l15.1236 -6.0108 -3.654 -19.2696z"/>
   <polygon id="_86860816" class="fil27" points="390.242,423.606 413.052,418.927 391.512,400.111 "/>
   <path id="_86987776" class="fil28" d="M310.867 285.176l-0.6888 1.2372 81.9696 57.1836 64.134 -10.7952 -25.2936 -14.1528 -1.3764 9.0732c-2.322,4.3884 -6.672,5.4168 -12.1992,6.2148 -3.972,0.5724 -12.9432,2.3124 -16.3752,0.1344l-8.8896 -1.9044c-5.4708,-2.6244 -4.86,-0.5964 -7.62,-6.3504l0 -13.3344 -17.7804 0 -6.3504 -1.9056c-7.6308,-0.6348 -6.3492,-7.8444 -6.3492,-15.8748l-13.3356 0 -7.62 -1.9056 -3.8484 -1.8264 0.0384 -1.9836 -0.7044 -5.712 -17.7108 1.902z"/>
   <path id="_86015936" class="fil28" d="M429.612 401.382l66.6756 -13.9704 -27.7224 -18.1212 -0.2172 6.0564c0,13.4364 -12.594,13.9704 -26.0352,13.9704l-13.9704 -3.1752c-10.1124,-2.3568 -9.5244,-7.0332 -9.5244,-19.05l-1.2708 0 -25.4148 4.998 37.4796 29.292z"/>
   <path id="_85866704" class="fil28" d="M354.683 188.657l-3.81 1.9056 19.05 6.9852c4.2144,-0.9828 15.216,-5.6004 19.7928,-7.512 5.5596,-2.322 14.4792,-5.9844 19.7016,-7.6032l39.2448 -15.9996 -22.86 -4.446 -71.1192 26.67z"/>
   <path id="_283921472" class="fil28" d="M313.408 203.262l-12.0648 1.2684 0 3.8124c0,1.8132 -0.2004,1.1604 -1.2708,1.9044 -3.204,2.7852 -13.9836,2.5404 -20.3196,2.5404l-6.3504 -0.6348 -5.0796 -1.9056 0 -3.1752 -4.4448 0 -4.4448 0.6348 -12.0648 0.636 -4.446 0.6348 -12.0648 0.6348 -0.5832 1.1868 12.648 7.7028 97.7904 -7.62 -0.6348 -1.2696c-2.8188,-0.0624 -9.7692,-3.414 -12.612,-4.5336 -6.726,-2.6496 -4.7844,-1.8168 -14.058,-1.8168z"/>
   <path id="_86140152" class="fil28" d="M420.088 363.282l0 0.6348 0 1.2696 8.2548 5.7156 14.6052 3.1752c13.5432,0 16.4676,-0.1596 24.7644,-5.7156l0.6012 -1.9176 -1.4052 -3.0852 1.44 -0.0768 -1.2708 -0.6348c-2.7432,-0.7332 -6.1872,-3.8388 -11.9208,-5.2248 -3.3144,-0.8004 -10.4916,-1.7604 -14.7492,-1.7604 -11.3808,0 -14.9508,1.4436 -20.3196,7.62z"/>
   <path id="_85702312" class="fil28" d="M222.602 324.547l0 3.81c0,5.9784 5.7852,13.3344 11.43,13.3344l5.0796 0c5.484,0 13.9704,-5.394 13.9704,-10.1592 0,-0.3204 -13.8048,-14.8236 -15.24,-15.876 -2.8368,5.3616 -6.9888,8.8908 -15.24,8.8908z"/>
   <path id="_284100704" class="fil28" d="M217.523 264.222l2.5392 6.9852c4.5408,3.0396 7.38,8.112 16.026,6.51 4.4868,-0.8304 13.1844,-6.3204 13.1844,-10.32 0,-0.4788 -13.854,-12.0648 -15.24,-12.0648 -1.2552,0 -4.614,8.8896 -16.5096,8.8896z"/>
   <path id="_285616944" class="fil28" d="M330.552 275.017l0 1.2696 -1.2696 0 0 1.9056 4.4448 2.5392 6.9852 1.2708 6.3504 0.6348c5.0436,0.6684 18.0732,-1.4232 19.05,-5.0808l0 -1.9044 -14.6052 -3.1752 -6.9852 0 -5.718 0.6108c-3.8352,0.5508 -5.1564,1.6716 -8.2524,1.9296z"/>
   <path id="_83542472" class="fil29" d="M62.5824 381.061l8.8908 45.0852c2.718,-1.8204 5.6076,-6.3504 10.1592,-6.3504l4.4448 0c3.9468,0 5.6832,1.8144 8.178,3.1884l-0.558 -4.458 -13.9692 -58.4196 -0.6348 -1.9044 -1.4772 -6.3024 -1.0296 -0.7368 -0.0336 -1.2168 -5.0796 -3.174c-9.8544,0 -9.0216,2.7096 -14.6052,3.174l5.7144 31.1148z"/>
   <path id="_84077360" class="fil29" d="M30.198 215.963l4.4448 27.9396c4.374,-2.9292 3.6576,-7.62 13.3344,-7.62l1.2708 0c7.1424,0 8.6832,3.0252 12.6996,5.7144l-1.9044 -8.2548 -4.446 -13.9692 -0.6348 -1.9056c-2.5656,-3.6924 -3.3948,-10.8276 -6.3492,-15.24l-3.81 -3.1752 -12.066 -2.5392 -3.81 0c-0.8544,3.6672 -1.0476,15.3948 1.2708,19.05z"/>
   <path id="_83531656" class="fil29" d="M96.8724 329.627l-3.4272 -10.0836 30.0768 -11.5596 5.1012 8.9436 -31.7508 12.6996zm-46.3548 12.6996l0.6348 -1.2696c2.6676,-0.0588 5.8536,-1.9284 8.7504,-2.6796 4.4736,-1.1604 4.9212,-0.7188 10.32,-1.11 3.9336,-0.2844 14.9364,-6.6396 16.4904,-5.7348l1.9044 4.4448 49.53 -19.6848 -7.56 -13.8156 -46.6596 17.6904 1.5144 5.0148c-5.754,1.536 -11.6316,5.7012 -17.418,6.1668 -5.136,0.4128 -18.7764,2.1456 -18.7764,5.898l0 0.6348c0,2.3472 0.3228,3.0828 1.2696,4.4448z"/>
   <path id="_85701120" class="fil29" d="M198.473 225.487l-2.5404 2.5404 -3.81 8.2548 12.7008 10.1592c1.5192,-5.6916 7.7976,-11.4756 12.708,-13.962 10.3068,-5.2188 10.0908,-3.5568 22.2168,-2.5476 -1.8288,-2.496 -15.3492,-10.7952 -19.686,-10.7952l-5.0796 0c-9.4992,0 -12.3636,5.2428 -16.5096,6.3504z"/>
   <path id="_86577536" class="fil29" d="M374.368 242.632c-0.162,7.2684 0.0948,11.4768 5.7144,15.24 1.3284,1.4004 2.9856,2.5404 5.7156,2.5404 6.42,0 13.218,-5.6016 14.6052,-10.7952l-23.9976 -9.8316 -2.0376 2.8464z"/>
   <path id="_85098328" class="fil29" d="M369.923 282.002c2.9964,-0.8004 4.8828,-3.204 8.6136,-4.0908 3.384,-0.8052 8.5656,0.1968 10.4364,-0.99l-7.62 -4.4448 -1.2708 -0.6348c-4.7544,-1.1076 -9.366,-5.7156 -15.24,-5.7156l-1.9044 0 0 5.7156c0,2.808 2.9916,1.5036 4.4916,4.398 1.7472,3.3684 -1.278,4.7556 2.4936,5.7624z"/>
   <path id="_86442712" class="fil29" d="M248.638 307.402l0 -0.6348c-2.4408,-2.5728 -6.4992,-4.4448 -11.43,-4.4448l-2.5404 0c-5.4708,0 -17.1444,7.8972 -17.1444,12.0648 0,1.794 1.4568,2.4504 2.5392,3.1752 1.5996,-1.0704 4.7568,-5.4624 7.1376,-7.4676 2.2872,-1.9272 6.5676,-3.9624 10.6428,-3.9624l5.7156 0c2.7528,0 1.9596,1.0104 5.0796,1.2696z"/>
   <path id="_284978832" class="fil29" d="M211.807 248.347l2.5404 2.5392c3.3468,-2.4516 7.9908,-12.0648 15.8748,-12.0648l6.9852 0c2.1888,0 2.4588,0.4704 4.4448,0.6348 -1.416,-1.9332 -4.3272,-3.174 -7.62,-3.174l-5.0796 0c-8.2692,0 -14.256,6.6048 -17.1456,12.0648z"/>
   <path id="_86904408" class="fil29" d="M315.312 196.913l-0.7524 1.8588 9.0084 3.2208 10.794 -3.81c-3.0468,-0.7104 -5.4528,-0.66 -5.7144,-3.81l-3.81 0c-5.2536,0 -6.1896,0.7752 -9.5256,2.5404z"/>
   <path id="_85832608" class="fil29" d="M187.043 264.222l0 1.9044c1.5396,1.032 3.7632,4.446 5.7144,4.446 0.7476,0 5.9508,-2.5188 6.9852,-3.1752l-4.4448 -5.7156 -0.6348 -0.6348 -7.62 3.1752z"/>
   <polygon id="_79740856" class="fil30" points="429.612,401.382 428.342,429.956 494.389,414.746 496.922,387.412 496.288,387.412 "/>
   <path id="_86326208" class="fil30" d="M219.427 276.287c3.8088,0.888 5.9724,4.4448 12.0648,4.4448l2.5404 0c4.8996,0 6.6204,-1.7148 10.1604,-2.5392 -1.7208,2.3484 -6.6984,3.81 -10.7952,3.81l-0.6348 0c-5.0556,0 -11.4,-2.826 -13.3356,-5.7156zm-9.5244 -19.05l1.9488 1.4256 3.7656 13.1796c-3.768,-2.5236 -5.7144,-8.1132 -5.7144,-14.6052zm38.7348 -13.3344c4.11,2.7516 6.9852,8.946 6.9852,15.8748l0 1.2696c0,5.3544 -5.514,14.8044 -9.5256,15.8748 2.85,-4.2552 8.2548,-8.1036 8.2548,-15.8748l0 -1.9044c0,-10.062 -4.5216,-10.7736 -5.7144,-15.24zm0 0l-1.2696 0 0 -1.2708 1.2696 1.2708zm-20.3196 0.6348c2.7336,5.6988 -2.9076,10.878 -6.3504,12.6996l-4.4448 0.6348c-0.21,2.5224 -0.6348,1.53 -0.6348,3.1752 0,1.6452 0.4248,0.6528 0.6348,3.1752 11.8956,0 15.2544,-8.8896 16.5096,-8.8896 1.386,0 15.24,11.586 15.24,12.0648 0,3.9996 -8.6976,9.4896 -13.1844,10.32 -8.646,1.602 -11.4852,-3.4704 -16.026,-6.51 -2.2068,-1.6176 -3.81,-5.5332 -3.81,-9.5256l0 -1.9044c0,-3.2628 0.618,-6.8472 2.5404,-8.2548 1.2204,-5.2368 9.2928,-10.1604 15.8748,-10.1604 3.8664,0 9.7284,2.1324 10.7952,5.0796 4.2636,2.8548 5.7156,6.8244 5.7156,13.9704l0 2.5404 -15.654 -11.7156 -0.222 -2.8896 -0.6348 -5.7156 -6.3492 1.9056zm-16.5108 3.81c2.8896,-5.46 8.8764,-12.0648 17.1456,-12.0648l5.0796 0c3.2928,0 6.204,1.2408 7.62,3.174 -1.986,-0.1644 -2.256,-0.6348 -4.4448,-0.6348l-6.9852 0c-7.884,0 -12.528,9.6132 -15.8748,12.0648l-2.5404 -2.5392zm-19.6848 -12.0648l-0.6348 2.5392 11.7096 11.8164 -0.2796 2.7888 0 8.2548 3.1752 10.1604 1.9044 3.1752 3.81 3.81c3.4956,0.8136 8.9352,5.7144 13.9704,5.7144l7.62 0c5.4504,0 11.5032,-5.5212 14.6052,-6.3492l3.1752 -3.1752c1.5504,-5.8068 6.3492,-7.4232 6.3492,-19.05 0,-5.8992 -2.2164,-8.8212 -2.5392,-12.7008l-0.636 -1.2696 -3.81 -5.0796 -0.6348 -0.6348 -1.2696 0 -5.538 -4.0776 -0.1776 -1.0032 -3.174 -1.2696c-12.126,-1.0092 -11.91,-2.6712 -22.2168,2.5476 -4.9104,2.4864 -11.1888,8.2704 -12.708,13.962l-12.7008 -10.1592z"/>
   <path id="_285932712" class="fil30" d="M378.178 261.682c-5.4408,-1.2672 -12.6996,-9.1224 -12.6996,-15.8748l0 -3.81c0,-3.444 2.4288,-0.8556 5.0796,-0.6348l0 6.3504c0,7.8084 4.9152,10.2792 7.62,13.9692zm-3.81 -19.05l2.0376 -2.8464 23.9976 9.8316c-1.3872,5.1936 -8.1852,10.7952 -14.6052,10.7952 -2.73,0 -4.3872,-1.14 -5.7156,-2.5404 -1.116,3.366 -6.984,-6.9672 -6.984,-8.8896l0 -6.3504c0,-2.7168 2.7744,-7.6656 4.4448,-8.8896l1.9044 -1.9056 1.2708 -1.2696c1.7472,-2.61 5.2008,-3.81 9.5244,-3.81l0.6348 0c2.1888,0 3.2868,0.8976 4.4448,1.9056 5.6556,2.9916 6.9852,6.714 6.9852,15.24l0 2.5392c-5.7096,0 -7.6788,-2.4492 -12.6204,-3.8892 -4.938,-1.4388 -6.4824,-3.8292 -11.4252,-5.0088l-0.7188 -3.1668 -3.1752 8.2548zm-1.2696 -6.9852l-5.0808 -1.9044c1.5312,-6.5712 9.3732,-12.0648 17.7804,-12.0648l1.2696 0c0.786,0 4.4616,1.6956 5.0808,2.5404 -9.8088,0 -17.0592,3.9708 -19.05,11.4288zm-30.48 -12.0636l0 3.8088c3.5388,0.8244 5.6604,2.2776 9.0696,3.63 1.9572,0.7776 3.7248,0.7512 5.0148,1.3356 1.6128,0.7308 1.2108,1.3404 3.822,2.6652l-0.762 5.7048c-0.198,0.744 -0.6348,1.7304 -0.6348,1.9044 0,4.656 1.7088,8.496 2.5404,12.0648l0.6348 1.2708 0.624 4.4664 10.806 5.6928 6.3492 0.636c1.5024,0.1992 3.642,-0.636 6.3504,-0.636l1.9056 -0.6348 1.9896 -1.7892 -5.1468 0.6276c-1.9668,0.2208 -6.0132,-1.788 -7.0032,-2.6484l1.236 -0.6888c1.4484,1.2828 3.0744,1.9596 5.7492,1.9596 11.3652,0 19.6848,-10.644 19.6848,-22.2252l0 -1.2708c0,-8.8176 -6.2364,-10.1472 -7.62,-13.9692l0.4692 -0.45 6.5172 6.798c-0.8616,-10.3404 -9.5376,-13.4916 -17.1468,-17.1432 -2.2308,1.416 -10.2348,0.6264 -15.7224,5.232 -2.772,2.3268 -8.1684,8.16 -9.042,11.9124l-19.6848 -8.2536z"/>
   <path id="_284799488" class="fil30" d="M50.5176 342.326l3.3648 7.53c5.1552,-0.354 8.5788,-4.3548 14.4156,-4.3548 1.3044,0 2.4048,0.7356 3.1752,1.2708l5.0796 3.174c2.6784,1.794 1.8096,2.8704 3.1752,5.7156l-0.6348 2.5404 0.6348 1.9044 0.6192 -1.266 2.556 8.886 1.9044 -1.9044c1.7496,-6.5544 3.1752,-2.3892 3.1752,-13.9704l5.5728 -2.2824c-0.81,-3.7068 -8.9208,-14.6916 -6.8424,-18.0372 -1.554,-0.9048 -12.5568,5.4504 -16.4904,5.7348 -5.3988,0.3912 -5.8464,-0.0504 -10.32,1.11 -2.8968,0.7512 -6.0828,2.6208 -8.7504,2.6796l-0.6348 1.2696z"/>
   <path id="_86577256" class="fil30" d="M380.082 271.842l1.2708 0.6348 15.9672 2.6676 -0.1308 0.7836 -10.8528 -1.374 4.5408 3.0024 1.8516 0.0336 0.6888 1.2372 1.2696 0c0.0528,0.078 5.6244,5.6484 5.7156,5.7144l0 1.2708c3.7848,2.772 2.3328,10.794 5.7144,10.794l2.5404 0c2.4036,0 6.2964,-14.6088 5.0796,-17.1444l-2.5392 -1.2696c-2.7252,-0.6348 -8.1576,-3.762 -10.7952,-5.0808 -2.0016,-0.9996 -10.0404,-3.9204 -10.7952,-4.4448l-9.522 -1.2864 -3.1776 0.0168c-2.0724,0 -2.0916,-0.3288 -3.1752,-1.2708l-4.4352 -0.69 10.7844 6.4056z"/>
   <path id="_85703152" class="fil30" d="M452.472 172.147l0 3.1752c0.7368,1.0596 1.542,2.3772 1.2708,4.4448l-0.6348 2.5404 -0.7536 1.8588 2.6532 1.3236 0.6396 10.152 0.7248 1.8876 2.4456 -1.26c5.6424,0.0072 14.1528,-0.348 15.2448,-4.4376l-11.3544 -2.8644 -1.3452 -1.5804c-1.8744,-0.678 -3.1752,-3.2676 -3.1752,-5.7144l0 -1.2708c0,-2.6364 0.3924,-3.972 1.9044,-5.0796l3.81 -3.81 6.876 -2.8476 0.1092 -1.5972c0,-3.0192 -0.252,-6.1572 -2.5392,-6.9852 -0.7452,1.8444 -7.0464,3.462 -9.0228,4.9476 -2.3868,1.794 -4.6224,6.522 -6.8532,7.1172z"/>
   <path id="_286269408" class="fil30" d="M185.137 292.796c3.6216,5.4084 6.2904,9.15 8.2728,16.6008l1.8876 -0.7248c0,-7.224 2.892,-15.0396 6.9852,-17.7804l0 -1.2696c3.2172,-2.1552 4.5888,-4.566 9.5244,-5.7156l1.2708 -0.6348 2.064 -1.6872 -3.3348 -2.1228c-5.8632,0.4884 -9.066,3.9744 -12.5244,7.1604 -1.9956,1.8384 -10.9476,4.6404 -14.1456,6.174z"/>
   <path id="_85282616" class="fil30" d="M435.328 281.366l-11.43 -5.7144 -17.7804 -3.81 0 0.6348c5.0688,4.4064 19.7304,8.8896 29.2104,8.8896z"/>
   <path id="_284618080" class="fil30" d="M167.993 196.913c-0.702,1.326 -2.2164,3.174 0.6348,3.174l0.6348 0c2.2068,0 0.8928,-1.1256 3.81,-1.9044l1.2708 -0.6348 0.6888 -1.2372 1.2156 -0.0336 6.3504 -1.2696 -10.1604 0 -4.4448 1.9056z"/>
   <path id="_86159992" class="fil31" d="M428.342 429.956l1.2696 -28.5744 -37.4796 -29.292 25.4148 -4.998 -0.6348 -0.6348 -25.4004 4.4448c-0.708,2.1372 -5.6964,-2.7108 -7.734,-4.3308 -2.6544,-2.1096 -4.992,-4.1124 -7.7592,-6.2112 -5.5512,-4.2096 -10.6644,-8.574 -16.2564,-12.318l0 24.1296 68.58 57.7848z"/>
   <path id="_85462224" class="fil31" d="M282.293 195.642l-5.0808 0.6348 4.446 0.636 4.4448 0 3.81 0 8.2548 0 -15.234 -6.906 3.804 -0.714 -4.4448 0 0 3.174c0,2.6436 4.0332,3.1752 6.9852,3.1752l0 0.6348 -6.9852 -0.6348z"/>
   <path id="_85387352" class="fil32" d="M73.3776 207.707l0.6888 1.2372 19.6308 3.8436 13.3416 1.8672c2.6112,0.4956 2.3772,-0.1248 4.4388,1.308l5.0796 0 1.9056 1.2696 6.3444 0.678c2.628,0.3048 2.5596,-0.0876 4.4508,1.2264l57.9096 9.5436 1.7796 -18.4332 -0.6348 0 -113.029 -20.9544 -1.9056 18.414z"/>
   <polygon id="_285137904" class="fil32" points="137.071,339.346 97.8924,354.88 105.91,371.896 201.727,332.768 194.825,316.224 194.228,315.979 "/>
   <path id="_85315240" class="fil32" d="M242.922 218.502l0.636 12.6996c2.5764,1.3644 4.7688,2.7204 6.3492,5.0808l0.6348 0.6348 2.5428 1.9284 17.1432 -1.2936 15.8748 -1.9056 0 -5.7144c0,-4.1364 13.0368,-5.0796 17.7792,-5.0796 4.9944,0 17.1456,0.6492 17.1456,5.0796l-0.0024 2.5104 20.3544 -1.8756 -0.6672 -19.6848 -97.7904 7.62z"/>
   <path id="_86139096" class="fil32" d="M369.923 197.548l1.9044 10.1592c0.7824,0.6804 6.3984,3.1752 7.62,3.1752l34.9248 -13.3344 8.256 -3.1752 3.174 -1.2696 8.256 -3.1752 19.05 -7.62 -0.8592 -6.9852 -0.8628 -7.9572 -2.724 -0.9324 -39.2448 15.9996c-5.2224,1.6188 -14.142,5.2812 -19.7016,7.6032 -4.5768,1.9116 -15.5784,6.5292 -19.7928,7.512z"/>
   <polygon id="_83633352" class="fil32" points="184.502,230.567 182.582,231.922 132.721,222.984 129.882,244.604 183.064,253.399 186.516,233.009 "/>
   <polygon id="_283921024" class="fil32" points="88.6176,335.977 97.098,353.645 146.334,334.535 138.148,316.292 "/>
   <polygon id="_284975968" class="fil32" points="140.053,316.292 147.082,334.183 194.66,315.023 187.043,297.242 "/>
   <path id="_86326496" class="fil32" d="M308.328 261.047l-0.636 1.2696 0.636 2.5404 6.174 4.0764 0.1752 2.9088 0.7248 6.9732 -6.4392 -1.8936 -2.5404 -1.9044 -6.9492 -4.4964 -3.2112 0.0516 -5.7144 1.2696 18.4152 12.6996c3.9204,0 8.5476,-0.8508 12.6396,-1.3296 11.6448,-1.3632 4.0968,-1.2768 7.68,-6.9252l1.2696 -1.2696c1.6884,-2.304 6.1272,-3.1752 10.1604,-3.1752l1.2384 -0.7308 0.0312 -7.524c-2.2824,-3.2856 -2.2164,-3.36 -7.62,-3.81l0 1.9044c0,1.1388 -0.3804,3.3156 -1.2696,0.6348l-8.8584 -1.5c-2.9328,-0.1704 -6.9168,0.7428 -7.6512,2.7708l-1.2708 -0.6348 0 -3.1752 -6.984 1.2696z"/>
   <polygon id="_85911944" class="fil32" points="412.468,297.877 416.912,298.512 445.882,302.252 450.43,286.667 448.027,285.176 415.643,280.732 411.229,297.146 "/>
   <path id="_86860648" class="fil32" d="M96.8724 329.627c0.948,-2.3484 12.4692,-5.7828 15.324,-6.9012 3.5604,-1.3944 12.8088,-5.718 16.4268,-5.7984l-5.1012 -8.9436 -30.0768 11.5596 3.4272 10.0836z"/>
   <path id="_283920800" class="fil32" d="M142.592 301.052c0.2976,1.2744 3.5424,7.62 4.4448,7.62 1.8288,0 24.0072,-8.8824 26.67,-10.1604l-2.4384 -7.0248 0.534 -0.5952 -0.6732 -1.368 -27.8472 10.2912 -0.69 1.2372z"/>
   <path id="_285010640" class="fil32" d="M180.692 259.777c1.1268,4.218 10.1604,10.6284 10.1604,12.6996 0,2.3868 -4.1208,5.9172 -5.7156,6.9852l-5.7144 -5.7156c-2.1768,1.5948 -3.4608,6.9192 -1.9056,10.1604l0.636 0 0.6348 -6.3504c1.8264,0.4884 5.0796,4.0164 5.0796,5.0808 0,1.4544 -0.2148,0.738 -0.6348,2.5392l0.6348 0.636 5.0028 -1.2948 0.7128 -2.5152 2.5392 -3.1752 1.9056 -1.9056 0.5292 -0.7404 0.7404 -0.5292c1.77,-2.4156 5.346,-3.1752 9.6744,-3.324l-5.2296 -4.9308c-1.0344,0.6564 -6.2376,3.1752 -6.9852,3.1752 -1.9512,0 -4.1748,-3.414 -5.7144,-4.446l0 -1.9044 -0.6348 -0.6348 -0.9624 0.3804 -2.8476 -3.5556 0 -1.9056 -1.9056 1.2708z"/>
   <polygon id="_84866248" class="fil33" points="289.278,292.162 391.512,370.902 392.148,343.597 310.178,286.414 289.278,272.477 "/>
   <path id="_284409232" class="fil33" d="M384.528 325.817c2.76,5.754 2.1492,3.726 7.62,6.3504l0.6348 -14.6052c-3.39,-0.282 -6.2088,-2.1696 -6.9852,-5.0796l-1.2696 13.3344z"/>
   <path id="_79202488" class="fil34" d="M289.278 292.162l-0.636 -0.6348 -15.8748 -12.6996c-1.1868,1.8708 -0.0756,18.258 1.4148,20.1756 1.4544,1.8696 9.6672,8.316 12.0384,10.1868 8.0028,6.3132 15.9816,14.6052 24.012,20.4372 15.9336,11.5716 32.106,29.8224 48.2604,40.6404l0 -22.86 -69.2148 -55.2456z"/>
   <path id="_283920968" class="fil35" d="M274.121 316.922l57.3084 53.1384 0.3936 -19.4784c0,-1.3704 -55.2168,-49.3104 -58.5984,-50.1552l0.8964 16.4952z"/>
   <polygon id="_284101184" class="fil36" points="246.732,281.366 247.871,295.465 252.448,300.416 272.215,298.508 271.498,278.827 "/>
   <path id="_85702984" class="fil37" d="M427.708 309.942c2.1492,0.5736 3.1752,1.746 3.1752,4.4448l0 3.1752c3.6012,0.3 10.0224,2.4024 10.7964,-0.6024 1.0452,-4.0584 2.3148,-7.776 3.1728,-11.4624 -6.186,-3.2736 -4.794,-2.6904 -13.1868,-3.9588 -3.4716,-0.5244 -12.282,-1.3092 -14.7528,-3.0264l-4.4448 -0.6348 -8.0928 -0.6084 -0.7968 4.4184c5.892,3.1176 3.9684,2.6016 11.9976,3.876 4.1916,0.666 9.9912,1.4568 12.132,4.3788z"/>
   <path id="_283866976" class="fil38" d="M341.347 251.522l-0.6348 0 -1.86 0.7536 2.0196 1.5684c-2.718,-0.3792 -3.3324,-1.6872 -5.874,-1.6872 -1.8732,0 -0.636,2.6892 -0.636,5.0796l9.48 2.1276 -2.1336 -3.1908 7.4148 5.304 -8.9628 -2.0388 3.0924 2.8776 5.7144 2.5404 0 2.5404 1.9056 0c2.3064,0 2.2272,-0.7536 4.6272,-1.5828l-5.2056 -3.6288 6.2928 2.6712 0 -1.9044 3.8604 0.384 -2.5896 0.2508 0 1.2696 1.9044 0 1.9056 0 0.6348 -8.8896 -19.566 -9.7644 -0.1188 6.5892 -1.2708 0 0 -1.2696z"/>
   <path id="_283810568" class="fil39" d="M211.807 278.827l0 0.6348 3.3348 2.1228 -2.064 1.6872c7.4208,0 3.5556,0.2676 9.7512,1.6776 3.9096,0.8904 9.516,-0.6588 12.4968,0.8388 2.2236,1.1184 12.534,10.614 13.9464,12.7236l3.1752 1.9044 -4.5768 -4.9512 -1.1388 -14.0988 1.2708 -3.174c-3.102,0.828 -9.1548,6.3492 -14.6052,6.3492l-7.62 0c-5.0352,0 -10.4748,-4.9008 -13.9704,-5.7144z"/>
   <path id="_284122024" class="fil40" d="M195.298 308.672l5.7156 13.9692 6.3492 8.2548 2.5404 1.9056 -1.2696 -10.1604 -11.6928 -14.2632 0.2628 -5.4216 1.2696 -3.81 3.81 -8.2548c-4.0932,2.7408 -6.9852,10.5564 -6.9852,17.7804z"/>
   <polygon id="_86020552" class="fil41" points="232.128,193.738 249.907,203.262 259.433,207.707 263.878,207.072 260.068,207.072 260.068,206.437 268.322,206.437 267.688,201.992 267.688,205.802 267.377,206.414 240.383,192.467 239.748,192.467 239.104,196.93 "/>
   <path id="_284777760" class="fil42" d="M287.372 236.917l0 4.4448c1.7424,-1.8372 3.51,-2.4624 6.9852,-2.5404l0 5.0808 0 3.174 -3.1752 0 -5.7144 0.636 -3.1752 0 0 8.8896 -10.1604 1.9044 10.7952 -0.6348 0.0324 2.2188 15.2724 -1.59 -0.0888 -0.8604 -14.5812 1.5024 0 -10.1604 2.5404 0c2.4276,0 0.2304,0.1944 1.9044,-0.6348l6.9852 0 0 3.1752 1.2696 -0.636 0 -10.794 9.5256 0 5.0796 -3.1752c-7.6608,0 -16.3632,-1.212 -22.86,1.9044l-0.6348 -1.9044z"/>
   <polygon id="_84953640" class="fil43" points="271.498,257.237 272.132,258.506 282.293,256.602 282.293,247.712 285.468,247.712 281.022,244.537 279.752,243.902 271.738,249.992 "/>
   <path id="_85572200" class="fil44" d="M359.762 240.727l0.762 -5.7048c-2.6112,-1.3248 -2.2092,-1.9344 -3.822,-2.6652 -1.29,-0.5844 -3.0576,-0.558 -5.0148,-1.3356 -3.4092,-1.3524 -5.5308,-2.8056 -9.0696,-3.63l0.1368 5.4192 17.0076 7.9164z"/>
   <path id="_85510176" class="fil45" d="M307.692 258.506l1.9056 -3.174 -3.1752 -2.5404 -0.6348 -3.81 -9.5256 1.9044 -1.2696 0.636 0 -3.1752 -6.9852 0 10.7136 7.362 -3.0936 1.5276c5.766,0 9.0228,-1.374 12.0648,1.2696z"/>
   <path id="_84872936" class="fil46" d="M69.5676 187.387c3.0396,4.7904 -3.3588,12.072 3.81,20.3196l1.9056 -18.414 -3.1752 -6.9852 -0.6348 -1.2708 -1.194 0.6468 -0.7116 5.7036z"/>
   <path id="_84074544" class="fil47" d="M354.048 294.702c0,8.0304 -1.2816,15.24 6.3492,15.8748l0.69 -12.0984 -0.69 -1.236 -5.124 -2.4588 0.0444 -1.9872 -0.6348 -0.6348 -0.6348 2.5404z"/>
   <polygon id="_83331928" class="fil48" points="333.092,292.796 340.712,294.702 340.712,282.002 333.727,280.732 "/>
   <path id="_84660880" class="fil49" d="M299.437 186.118l-6.978 2.5596 -0.0072 1.2504 6.1812 1.836 7.0584 3.4488c0.8424,-3.0024 4.2,-4.572 7.716,-4.65l-0.4764 -1.9056 -5.2176 -0.7752c-2.532,-0.2364 -6.7608,1.8792 -8.2764,2.6808l-0.312 -0.5916 5.544 -2.9304 -5.232 -0.9228z"/>
   <path id="_85671904" class="fil50" d="M336.268 242.632l-10.7952 -5.7144 -4.4448 0c0,7.302 -2.6952,3.8076 -6.3384,6.8952l6.9732 0.7248 3.8484 0.2328 10.7568 -2.1384z"/>
   <path id="_85796792" class="fil51" d="M309.598 255.967l5.0796 0 0 2.5392 -3.1752 0c-1.9788,0 -1.6764,-0.7572 -1.9044,-2.5392zm-2.5404 -5.0808l0 1.9056 5.7156 -2.5404 6.3492 -1.2696 0 1.2696 -2.412 0.1272 -1.398 1.1436 0 1.2696 0 1.9044 -1.9044 0 -3.81 0.636 -1.9056 3.174 3.2892 0.8472 -2.6532 1.6932 6.984 -1.2696 0 3.1752 1.296 -11.2944 4.4196 -0.7716 6.9852 -0.6348 0 -0.6348 -6.9852 0 0 -0.6348c6.3996,0 16.3776,-0.3348 19.6848,2.5404l0.6348 0 0 -1.2708 -15.8076 -3.0084 -3.8772 0.4692c-6.486,0 -10.3476,0.9216 -14.6052,3.174z"/>
   <polygon id="_85832176" class="fil52" points="288.007,269.936 290.548,271.842 296.262,270.572 306.422,269.936 306.422,275.017 308.963,276.922 308.328,264.857 307.692,262.316 305.651,264.118 306.564,268.012 304.518,268.032 304.518,259.142 303.247,259.142 303.247,268.667 "/>
   <polygon id="_84217704" class="fil53" points="270.863,238.187 279.752,243.902 281.022,244.537 284.776,241.908 285.131,242.74 287.372,241.997 287.372,241.362 286.103,241.362 286.103,236.917 "/>
   <path id="_83321872" class="fil54" d="M300.072 199.452l0 10.7952c1.0704,-0.744 1.2708,-0.0912 1.2708,-1.9044l0 -3.8124 12.0648 -1.2684 -3.81 0 1.9044 -0.6348 -0.6888 -1.236 -12.6456 -4.4784 -8.2548 0c4.0056,0 8.4384,0.1896 10.1592,2.5392z"/>
   <polygon id="_85821672" class="fil55" points="190.218,247.712 202.202,257.878 202.918,261.682 202.918,253.427 190.218,243.266 "/>
   <polygon id="_86961200" class="fil56" points="271.498,257.237 271.738,249.992 279.752,243.902 270.863,238.187 270.228,238.187 "/>
   <path id="_85620920" class="fil57" d="M315.312 196.913c0.8472,-2.34 3.2544,-3.1068 6.3504,-3.1752l-1.5744 -2.358 -3.5052 -0.1824c-4.6392,0 -9.186,0.7944 -10.1604,4.4448l6.4488 2.28 2.4408 -1.0092z"/>
   <polygon id="_86140872" class="fil58" points="344.522,271.842 344.522,272.477 351.508,272.477 361.676,272.293 361.668,265.492 349.501,269.686 350.964,271.765 "/>
   <polygon id="_86084456" class="fil59" points="281.022,244.537 285.468,247.712 291.182,247.076 294.358,247.076 294.358,243.902 287.372,241.997 285.131,242.74 284.776,241.908 "/>
   <polygon id="_86140192" class="fil60" points="190.218,243.266 202.918,253.427 203.197,250.638 191.488,238.822 "/>
   <path id="_284689144" class="fil61" d="M344.522 271.842l6.4416 -0.0768 -1.4628 -2.0796 12.1668 -4.194 0 -0.6348 -1.9056 0 -1.9044 0 0 -1.2696 2.5896 -0.2508 -3.8604 -0.384 0 1.9044 -6.2928 -2.6712 5.2056 3.6288c-2.4,0.8292 -2.3208,1.5828 -4.6272,1.5828l-1.9056 0 0 -2.5404 -5.7144 -2.5404c1.626,2.22 4.4448,1.7724 4.4448,4.446l-0.0084 4.3608 -3.1668 0.7188z"/>
   <polygon id="_286205720" class="fil62" points="251.178,260.412 235.302,248.347 235.524,251.237 251.178,262.952 "/>
   <path id="_286953704" class="fil63" d="M195.298 275.652l-0.7404 0.5292 -0.5292 0.7404 -1.9056 1.9056 0.0768 1.1772 1.8288 1.362 2.5392 -2.5392 1.2708 0 1.9044 -1.2708c1.9188,-2.6184 4.0488,-1.8096 6.3504,-3.81l-2.5152 -0.7116c-3.4512,0.8748 -5.8056,2.0412 -8.28,2.6172z"/>
   <polygon id="_85947432" class="fil64" points="336.268,242.632 337.537,243.266 341.347,241.362 341.347,239.456 325.472,236.917 "/>
   <path id="_84782456" class="fil65" d="M276.577 196.277l-10.0464 -4.6992 1.7916 -1.0152c-2.0352,0.0456 -3.1752,-0.2064 -3.1752,1.9044 0,3.9588 2.1576,3.0924 4.4448,5.0808l6.9852 -1.2708z"/>
   <path id="_86085376" class="fil66" d="M170.533 262.316l-3.81 -3.174c-0.942,1.0836 -1.2708,1.1028 -1.2708,3.174l-0.1404 3.1968 0.7752 5.694 0.636 0c0,-4.1892 0.4464,-7.992 3.81,-8.8908z"/>
   <path id="_85397216" class="fil67" d="M287.372 241.362l0 0.6348 6.9852 1.9056 0 -5.0808c-3.4752,0.078 -5.2428,0.7032 -6.9852,2.5404z"/>
   <path id="_286131032" class="fil68" d="M220.062 335.977c-0.5136,-2.2068 -1.9044,-6.7812 -1.9044,-8.8908l0 -0.6348c0,-1.7928 -1.4568,-2.4492 -2.5404,-3.1752 0,4.9272 1.8864,10.8252 4.4448,12.7008z"/>
   <polygon id="_286256992" class="fil69" points="307.057,252.792 306.422,252.792 309.598,255.332 313.408,254.696 312.773,250.252 "/>
   <path id="_284500216" class="fil70" d="M178.153 283.907l-0.636 0 0 0.6348 1.2624 0.0048 1.3272 2.7048 3.7608 -1.4388 -0.6348 -0.636 -1.86 -0.7524c-0.2952,-2.88 -0.5136,-2.5968 -2.5848,-3.6924l-0.6348 3.1752z"/>
   <path id="_83627616" class="fil71" d="M227.047 317.562c3.3936,-0.7908 4.0764,-2.6328 5.7156,-5.0796l-1.2708 -0.636c-2.1096,1.8348 -4.8756,2.5728 -5.7144,5.7156l1.2696 0z"/>
   <polygon id="_285520528" class="fil72" points="190.218,221.042 191.488,219.773 193.393,217.867 194.663,217.867 195.932,217.232 196.454,215.616 189.499,217.876 "/>
   <polygon id="_284768824" class="fil73" points="337.537,243.266 340.078,245.172 341.347,245.172 341.347,241.362 "/>
   <polygon id="_86902016" class="fil74" points="344.522,213.422 343.253,214.057 342.794,217.37 345.792,213.422 "/>
   <polygon id="_286230336" class="fil75" points="192.122,278.827 194.028,276.922 "/>
   <polygon id="_84730608" class="fil76" points="493.112,306.767 478.507,299.782 "/>
  </g>
 </g>
</svg>
